<?xml version="1.0" encoding="utf-8" standalone="no"?>
<!DOCTYPE svg PUBLIC "-//W3C//DTD SVG 1.1//EN"
  "http://www.w3.org/Graphics/SVG/1.1/DTD/svg11.dtd">
<svg xmlns:xlink="http://www.w3.org/1999/xlink" width="864pt" height="432pt" viewBox="0 0 864 432" xmlns="http://www.w3.org/2000/svg" version="1.1">
 <metadata>
  <rdf:RDF xmlns:dc="http://purl.org/dc/elements/1.1/" xmlns:cc="http://creativecommons.org/ns#" xmlns:rdf="http://www.w3.org/1999/02/22-rdf-syntax-ns#">
   <cc:Work>
    <dc:type rdf:resource="http://purl.org/dc/dcmitype/StillImage"/>
    <dc:date>1980-01-01T00:00:00+00:00</dc:date>
    <dc:format>image/svg+xml</dc:format>
    <dc:creator>
     <cc:Agent>
      <dc:title>Matplotlib v3.7.0, https://matplotlib.org/</dc:title>
     </cc:Agent>
    </dc:creator>
   </cc:Work>
  </rdf:RDF>
 </metadata>
 <defs>
  <style type="text/css">*{stroke-linejoin: round; stroke-linecap: butt}</style>
 </defs>
 <g id="figure_1">
  <g id="patch_1">
   <path d="M 0 432 
L 864 432 
L 864 0 
L 0 0 
z
" style="fill: #ffffff"/>
  </g>
  <g id="axes_1">
   <g id="patch_2">
    <path d="M 43.2 178.382979 
L 407.812238 178.382979 
L 407.812238 21.6 
L 43.2 21.6 
z
" style="fill: #ffffff"/>
   </g>
   <g id="patch_3">
    <path d="M 59.773284 178.382979 
L 70.822139 178.382979 
L 70.822139 176.41828 
L 59.773284 176.41828 
z
" clip-path="url(#pf69c9269e2)" style="fill: #1f77b4; fill-opacity: 0.5; stroke: #000000; stroke-width: 0.922314; stroke-linejoin: miter"/>
   </g>
   <g id="patch_4">
    <path d="M 70.822139 178.382979 
L 81.870995 178.382979 
L 81.870995 152.10513 
L 70.822139 152.10513 
z
" clip-path="url(#pf69c9269e2)" style="fill: #1f77b4; fill-opacity: 0.5; stroke: #000000; stroke-width: 0.922314; stroke-linejoin: miter"/>
   </g>
   <g id="patch_5">
    <path d="M 81.870995 178.382979 
L 92.919851 178.382979 
L 92.919851 178.137391 
L 81.870995 178.137391 
z
" clip-path="url(#pf69c9269e2)" style="fill: #1f77b4; fill-opacity: 0.5; stroke: #000000; stroke-width: 0.922314; stroke-linejoin: miter"/>
   </g>
   <g id="patch_6">
    <path d="M 92.919851 178.382979 
L 103.968706 178.382979 
L 103.968706 178.382979 
L 92.919851 178.382979 
z
" clip-path="url(#pf69c9269e2)" style="fill: #1f77b4; fill-opacity: 0.5; stroke: #000000; stroke-width: 0.922314; stroke-linejoin: miter"/>
   </g>
   <g id="patch_7">
    <path d="M 103.968706 178.382979 
L 115.017562 178.382979 
L 115.017562 166.349197 
L 103.968706 166.349197 
z
" clip-path="url(#pf69c9269e2)" style="fill: #1f77b4; fill-opacity: 0.5; stroke: #000000; stroke-width: 0.922314; stroke-linejoin: miter"/>
   </g>
   <g id="patch_8">
    <path d="M 115.017562 178.382979 
L 126.066418 178.382979 
L 126.066418 155.297766 
L 115.017562 155.297766 
z
" clip-path="url(#pf69c9269e2)" style="fill: #1f77b4; fill-opacity: 0.5; stroke: #000000; stroke-width: 0.922314; stroke-linejoin: miter"/>
   </g>
   <g id="patch_9">
    <path d="M 126.066418 178.382979 
L 137.115273 178.382979 
L 137.115273 178.382979 
L 126.066418 178.382979 
z
" clip-path="url(#pf69c9269e2)" style="fill: #1f77b4; fill-opacity: 0.5; stroke: #000000; stroke-width: 0.922314; stroke-linejoin: miter"/>
   </g>
   <g id="patch_10">
    <path d="M 137.115273 178.382979 
L 148.164129 178.382979 
L 148.164129 178.382979 
L 137.115273 178.382979 
z
" clip-path="url(#pf69c9269e2)" style="fill: #1f77b4; fill-opacity: 0.5; stroke: #000000; stroke-width: 0.922314; stroke-linejoin: miter"/>
   </g>
   <g id="patch_11">
    <path d="M 148.164129 178.382979 
L 159.212985 178.382979 
L 159.212985 178.382979 
L 148.164129 178.382979 
z
" clip-path="url(#pf69c9269e2)" style="fill: #1f77b4; fill-opacity: 0.5; stroke: #000000; stroke-width: 0.922314; stroke-linejoin: miter"/>
   </g>
   <g id="patch_12">
    <path d="M 159.212985 178.382979 
L 170.261841 178.382979 
L 170.261841 178.382979 
L 159.212985 178.382979 
z
" clip-path="url(#pf69c9269e2)" style="fill: #1f77b4; fill-opacity: 0.5; stroke: #000000; stroke-width: 0.922314; stroke-linejoin: miter"/>
   </g>
   <g id="patch_13">
    <path d="M 170.261841 178.382979 
L 181.310696 178.382979 
L 181.310696 178.382979 
L 170.261841 178.382979 
z
" clip-path="url(#pf69c9269e2)" style="fill: #1f77b4; fill-opacity: 0.5; stroke: #000000; stroke-width: 0.922314; stroke-linejoin: miter"/>
   </g>
   <g id="patch_14">
    <path d="M 181.310696 178.382979 
L 192.359552 178.382979 
L 192.359552 150.631606 
L 181.310696 150.631606 
z
" clip-path="url(#pf69c9269e2)" style="fill: #1f77b4; fill-opacity: 0.5; stroke: #000000; stroke-width: 0.922314; stroke-linejoin: miter"/>
   </g>
   <g id="patch_15">
    <path d="M 192.359552 178.382979 
L 203.408408 178.382979 
L 203.408408 138.597824 
L 192.359552 138.597824 
z
" clip-path="url(#pf69c9269e2)" style="fill: #1f77b4; fill-opacity: 0.5; stroke: #000000; stroke-width: 0.922314; stroke-linejoin: miter"/>
   </g>
   <g id="patch_16">
    <path d="M 203.408408 178.382979 
L 214.457263 178.382979 
L 214.457263 178.137391 
L 203.408408 178.137391 
z
" clip-path="url(#pf69c9269e2)" style="fill: #1f77b4; fill-opacity: 0.5; stroke: #000000; stroke-width: 0.922314; stroke-linejoin: miter"/>
   </g>
   <g id="patch_17">
    <path d="M 214.457263 178.382979 
L 225.506119 178.382979 
L 225.506119 173.716819 
L 214.457263 173.716819 
z
" clip-path="url(#pf69c9269e2)" style="fill: #1f77b4; fill-opacity: 0.5; stroke: #000000; stroke-width: 0.922314; stroke-linejoin: miter"/>
   </g>
   <g id="patch_18">
    <path d="M 225.506119 178.382979 
L 236.554975 178.382979 
L 236.554975 178.382979 
L 225.506119 178.382979 
z
" clip-path="url(#pf69c9269e2)" style="fill: #1f77b4; fill-opacity: 0.5; stroke: #000000; stroke-width: 0.922314; stroke-linejoin: miter"/>
   </g>
   <g id="patch_19">
    <path d="M 236.554975 178.382979 
L 247.60383 178.382979 
L 247.60383 178.382979 
L 236.554975 178.382979 
z
" clip-path="url(#pf69c9269e2)" style="fill: #1f77b4; fill-opacity: 0.5; stroke: #000000; stroke-width: 0.922314; stroke-linejoin: miter"/>
   </g>
   <g id="patch_20">
    <path d="M 247.60383 178.382979 
L 258.652686 178.382979 
L 258.652686 178.382979 
L 247.60383 178.382979 
z
" clip-path="url(#pf69c9269e2)" style="fill: #1f77b4; fill-opacity: 0.5; stroke: #000000; stroke-width: 0.922314; stroke-linejoin: miter"/>
   </g>
   <g id="patch_21">
    <path d="M 258.652686 178.382979 
L 269.701542 178.382979 
L 269.701542 165.612435 
L 258.652686 165.612435 
z
" clip-path="url(#pf69c9269e2)" style="fill: #1f77b4; fill-opacity: 0.5; stroke: #000000; stroke-width: 0.922314; stroke-linejoin: miter"/>
   </g>
   <g id="patch_22">
    <path d="M 269.701542 178.382979 
L 280.750398 178.382979 
L 280.750398 172.980057 
L 269.701542 172.980057 
z
" clip-path="url(#pf69c9269e2)" style="fill: #1f77b4; fill-opacity: 0.5; stroke: #000000; stroke-width: 0.922314; stroke-linejoin: miter"/>
   </g>
   <g id="patch_23">
    <path d="M 280.750398 178.382979 
L 291.799253 178.382979 
L 291.799253 177.155042 
L 280.750398 177.155042 
z
" clip-path="url(#pf69c9269e2)" style="fill: #1f77b4; fill-opacity: 0.5; stroke: #000000; stroke-width: 0.922314; stroke-linejoin: miter"/>
   </g>
   <g id="patch_24">
    <path d="M 291.799253 178.382979 
L 302.848109 178.382979 
L 302.848109 177.646217 
L 291.799253 177.646217 
z
" clip-path="url(#pf69c9269e2)" style="fill: #1f77b4; fill-opacity: 0.5; stroke: #000000; stroke-width: 0.922314; stroke-linejoin: miter"/>
   </g>
   <g id="patch_25">
    <path d="M 302.848109 178.382979 
L 313.896965 178.382979 
L 313.896965 178.382979 
L 302.848109 178.382979 
z
" clip-path="url(#pf69c9269e2)" style="fill: #1f77b4; fill-opacity: 0.5; stroke: #000000; stroke-width: 0.922314; stroke-linejoin: miter"/>
   </g>
   <g id="patch_26">
    <path d="M 313.896965 178.382979 
L 324.94582 178.382979 
L 324.94582 29.065856 
L 313.896965 29.065856 
z
" clip-path="url(#pf69c9269e2)" style="fill: #1f77b4; fill-opacity: 0.5; stroke: #000000; stroke-width: 0.922314; stroke-linejoin: miter"/>
   </g>
   <g id="patch_27">
    <path d="M 324.94582 178.382979 
L 335.994676 178.382979 
L 335.994676 178.382979 
L 324.94582 178.382979 
z
" clip-path="url(#pf69c9269e2)" style="fill: #1f77b4; fill-opacity: 0.5; stroke: #000000; stroke-width: 0.922314; stroke-linejoin: miter"/>
   </g>
   <g id="patch_28">
    <path d="M 335.994676 178.382979 
L 347.043532 178.382979 
L 347.043532 178.382979 
L 335.994676 178.382979 
z
" clip-path="url(#pf69c9269e2)" style="fill: #1f77b4; fill-opacity: 0.5; stroke: #000000; stroke-width: 0.922314; stroke-linejoin: miter"/>
   </g>
   <g id="patch_29">
    <path d="M 347.043532 178.382979 
L 358.092387 178.382979 
L 358.092387 178.382979 
L 347.043532 178.382979 
z
" clip-path="url(#pf69c9269e2)" style="fill: #1f77b4; fill-opacity: 0.5; stroke: #000000; stroke-width: 0.922314; stroke-linejoin: miter"/>
   </g>
   <g id="patch_30">
    <path d="M 358.092387 178.382979 
L 369.141243 178.382979 
L 369.141243 177.400629 
L 358.092387 177.400629 
z
" clip-path="url(#pf69c9269e2)" style="fill: #1f77b4; fill-opacity: 0.5; stroke: #000000; stroke-width: 0.922314; stroke-linejoin: miter"/>
   </g>
   <g id="patch_31">
    <path d="M 369.141243 178.382979 
L 380.190099 178.382979 
L 380.190099 178.382979 
L 369.141243 178.382979 
z
" clip-path="url(#pf69c9269e2)" style="fill: #1f77b4; fill-opacity: 0.5; stroke: #000000; stroke-width: 0.922314; stroke-linejoin: miter"/>
   </g>
   <g id="patch_32">
    <path d="M 380.190099 178.382979 
L 391.238955 178.382979 
L 391.238955 107.162641 
L 380.190099 107.162641 
z
" clip-path="url(#pf69c9269e2)" style="fill: #1f77b4; fill-opacity: 0.5; stroke: #000000; stroke-width: 0.922314; stroke-linejoin: miter"/>
   </g>
   <g id="matplotlib.axis_1">
    <g id="xtick_1">
     <g id="line2d_1">
      <defs>
       <path id="m9d766efb75" d="M 0 0 
L 0 3.5 
" style="stroke: #000000; stroke-width: 0.8"/>
      </defs>
      <g>
       <use xlink:href="#m9d766efb75" x="44.220642" y="178.382979" style="stroke: #000000; stroke-width: 0.8"/>
      </g>
     </g>
     <g id="text_1">
      <!-- 50 -->
      <g transform="translate(38.20033 193.034541) scale(0.1 -0.1)">
       <defs>
        <path id="DejaVuSansMono-35" d="M 647 4666 
L 3009 4666 
L 3009 4134 
L 1222 4134 
L 1222 2988 
Q 1356 3038 1492 3061 
Q 1628 3084 1766 3084 
Q 2491 3084 2916 2656 
Q 3341 2228 3341 1497 
Q 3341 759 2895 334 
Q 2450 -91 1678 -91 
Q 1306 -91 998 -41 
Q 691 9 447 109 
L 447 750 
Q 734 594 1025 517 
Q 1316 441 1619 441 
Q 2141 441 2423 716 
Q 2706 991 2706 1497 
Q 2706 1997 2414 2275 
Q 2122 2553 1600 2553 
Q 1347 2553 1106 2495 
Q 866 2438 647 2322 
L 647 4666 
z
" transform="scale(0.015625)"/>
        <path id="DejaVuSansMono-30" d="M 1509 2344 
Q 1509 2516 1629 2641 
Q 1750 2766 1919 2766 
Q 2094 2766 2219 2641 
Q 2344 2516 2344 2344 
Q 2344 2169 2220 2047 
Q 2097 1925 1919 1925 
Q 1744 1925 1626 2044 
Q 1509 2163 1509 2344 
z
M 1925 4250 
Q 1484 4250 1267 3775 
Q 1050 3300 1050 2328 
Q 1050 1359 1267 884 
Q 1484 409 1925 409 
Q 2369 409 2586 884 
Q 2803 1359 2803 2328 
Q 2803 3300 2586 3775 
Q 2369 4250 1925 4250 
z
M 1925 4750 
Q 2672 4750 3055 4137 
Q 3438 3525 3438 2328 
Q 3438 1134 3055 521 
Q 2672 -91 1925 -91 
Q 1178 -91 797 521 
Q 416 1134 416 2328 
Q 416 3525 797 4137 
Q 1178 4750 1925 4750 
z
" transform="scale(0.015625)"/>
       </defs>
       <use xlink:href="#DejaVuSansMono-35"/>
       <use xlink:href="#DejaVuSansMono-30" x="60.205078"/>
      </g>
     </g>
    </g>
    <g id="xtick_2">
     <g id="line2d_2">
      <g>
       <use xlink:href="#m9d766efb75" x="92.822647" y="178.382979" style="stroke: #000000; stroke-width: 0.8"/>
      </g>
     </g>
     <g id="text_2">
      <!-- 100 -->
      <g transform="translate(83.792178 193.034541) scale(0.1 -0.1)">
       <defs>
        <path id="DejaVuSansMono-31" d="M 844 531 
L 1825 531 
L 1825 4097 
L 769 3859 
L 769 4434 
L 1819 4666 
L 2450 4666 
L 2450 531 
L 3419 531 
L 3419 0 
L 844 0 
L 844 531 
z
" transform="scale(0.015625)"/>
       </defs>
       <use xlink:href="#DejaVuSansMono-31"/>
       <use xlink:href="#DejaVuSansMono-30" x="60.205078"/>
       <use xlink:href="#DejaVuSansMono-30" x="120.410156"/>
      </g>
     </g>
    </g>
    <g id="xtick_3">
     <g id="line2d_3">
      <g>
       <use xlink:href="#m9d766efb75" x="141.424651" y="178.382979" style="stroke: #000000; stroke-width: 0.8"/>
      </g>
     </g>
     <g id="text_3">
      <!-- 150 -->
      <g transform="translate(132.394182 193.034541) scale(0.1 -0.1)">
       <use xlink:href="#DejaVuSansMono-31"/>
       <use xlink:href="#DejaVuSansMono-35" x="60.205078"/>
       <use xlink:href="#DejaVuSansMono-30" x="120.410156"/>
      </g>
     </g>
    </g>
    <g id="xtick_4">
     <g id="line2d_4">
      <g>
       <use xlink:href="#m9d766efb75" x="190.026656" y="178.382979" style="stroke: #000000; stroke-width: 0.8"/>
      </g>
     </g>
     <g id="text_4">
      <!-- 200 -->
      <g transform="translate(180.996187 193.034541) scale(0.1 -0.1)">
       <defs>
        <path id="DejaVuSansMono-32" d="M 1166 531 
L 3309 531 
L 3309 0 
L 475 0 
L 475 531 
Q 1059 1147 1496 1619 
Q 1934 2091 2100 2284 
Q 2413 2666 2522 2902 
Q 2631 3138 2631 3384 
Q 2631 3775 2401 3997 
Q 2172 4219 1772 4219 
Q 1488 4219 1175 4116 
Q 863 4013 513 3803 
L 513 4441 
Q 834 4594 1145 4672 
Q 1456 4750 1759 4750 
Q 2444 4750 2861 4386 
Q 3278 4022 3278 3431 
Q 3278 3131 3139 2831 
Q 3000 2531 2688 2169 
Q 2513 1966 2180 1606 
Q 1847 1247 1166 531 
z
" transform="scale(0.015625)"/>
       </defs>
       <use xlink:href="#DejaVuSansMono-32"/>
       <use xlink:href="#DejaVuSansMono-30" x="60.205078"/>
       <use xlink:href="#DejaVuSansMono-30" x="120.410156"/>
      </g>
     </g>
    </g>
    <g id="xtick_5">
     <g id="line2d_5">
      <g>
       <use xlink:href="#m9d766efb75" x="238.62866" y="178.382979" style="stroke: #000000; stroke-width: 0.8"/>
      </g>
     </g>
     <g id="text_5">
      <!-- 250 -->
      <g transform="translate(229.598192 193.034541) scale(0.1 -0.1)">
       <use xlink:href="#DejaVuSansMono-32"/>
       <use xlink:href="#DejaVuSansMono-35" x="60.205078"/>
       <use xlink:href="#DejaVuSansMono-30" x="120.410156"/>
      </g>
     </g>
    </g>
    <g id="xtick_6">
     <g id="line2d_6">
      <g>
       <use xlink:href="#m9d766efb75" x="287.230665" y="178.382979" style="stroke: #000000; stroke-width: 0.8"/>
      </g>
     </g>
     <g id="text_6">
      <!-- 300 -->
      <g transform="translate(278.200196 193.034541) scale(0.1 -0.1)">
       <defs>
        <path id="DejaVuSansMono-33" d="M 2425 2497 
Q 2884 2375 3128 2064 
Q 3372 1753 3372 1288 
Q 3372 644 2939 276 
Q 2506 -91 1741 -91 
Q 1419 -91 1084 -31 
Q 750 28 428 141 
L 428 769 
Q 747 603 1056 522 
Q 1366 441 1672 441 
Q 2191 441 2469 675 
Q 2747 909 2747 1350 
Q 2747 1756 2469 1995 
Q 2191 2234 1716 2234 
L 1234 2234 
L 1234 2753 
L 1716 2753 
Q 2150 2753 2394 2943 
Q 2638 3134 2638 3475 
Q 2638 3834 2411 4026 
Q 2184 4219 1766 4219 
Q 1488 4219 1191 4156 
Q 894 4094 569 3969 
L 569 4550 
Q 947 4650 1242 4700 
Q 1538 4750 1766 4750 
Q 2447 4750 2855 4408 
Q 3263 4066 3263 3500 
Q 3263 3116 3048 2859 
Q 2834 2603 2425 2497 
z
" transform="scale(0.015625)"/>
       </defs>
       <use xlink:href="#DejaVuSansMono-33"/>
       <use xlink:href="#DejaVuSansMono-30" x="60.205078"/>
       <use xlink:href="#DejaVuSansMono-30" x="120.410156"/>
      </g>
     </g>
    </g>
    <g id="xtick_7">
     <g id="line2d_7">
      <g>
       <use xlink:href="#m9d766efb75" x="335.832669" y="178.382979" style="stroke: #000000; stroke-width: 0.8"/>
      </g>
     </g>
     <g id="text_7">
      <!-- 350 -->
      <g transform="translate(326.802201 193.034541) scale(0.1 -0.1)">
       <use xlink:href="#DejaVuSansMono-33"/>
       <use xlink:href="#DejaVuSansMono-35" x="60.205078"/>
       <use xlink:href="#DejaVuSansMono-30" x="120.410156"/>
      </g>
     </g>
    </g>
    <g id="xtick_8">
     <g id="line2d_8">
      <g>
       <use xlink:href="#m9d766efb75" x="384.434674" y="178.382979" style="stroke: #000000; stroke-width: 0.8"/>
      </g>
     </g>
     <g id="text_8">
      <!-- 400 -->
      <g transform="translate(375.404205 193.034541) scale(0.1 -0.1)">
       <defs>
        <path id="DejaVuSansMono-34" d="M 2297 4091 
L 825 1625 
L 2297 1625 
L 2297 4091 
z
M 2194 4666 
L 2925 4666 
L 2925 1625 
L 3547 1625 
L 3547 1113 
L 2925 1113 
L 2925 0 
L 2297 0 
L 2297 1113 
L 319 1113 
L 319 1709 
L 2194 4666 
z
" transform="scale(0.015625)"/>
       </defs>
       <use xlink:href="#DejaVuSansMono-34"/>
       <use xlink:href="#DejaVuSansMono-30" x="60.205078"/>
       <use xlink:href="#DejaVuSansMono-30" x="120.410156"/>
      </g>
     </g>
    </g>
    <g id="text_9">
     <!-- Clock cycles -->
     <g transform="translate(189.384244 206.765791) scale(0.1 -0.1)">
      <defs>
       <path id="DejaVuSansMono-43" d="M 3353 166 
Q 3113 38 2859 -26 
Q 2606 -91 2322 -91 
Q 1425 -91 929 543 
Q 434 1178 434 2328 
Q 434 3472 932 4111 
Q 1431 4750 2322 4750 
Q 2606 4750 2859 4686 
Q 3113 4622 3353 4494 
L 3353 3847 
Q 3122 4038 2856 4138 
Q 2591 4238 2322 4238 
Q 1706 4238 1400 3763 
Q 1094 3288 1094 2328 
Q 1094 1372 1400 897 
Q 1706 422 2322 422 
Q 2597 422 2861 522 
Q 3125 622 3353 813 
L 3353 166 
z
" transform="scale(0.015625)"/>
       <path id="DejaVuSansMono-6c" d="M 1997 1269 
Q 1997 881 2139 684 
Q 2281 488 2559 488 
L 3231 488 
L 3231 0 
L 2503 0 
Q 1988 0 1705 331 
Q 1422 663 1422 1269 
L 1422 4447 
L 500 4447 
L 500 4897 
L 1997 4897 
L 1997 1269 
z
" transform="scale(0.015625)"/>
       <path id="DejaVuSansMono-6f" d="M 1925 3097 
Q 1488 3097 1263 2756 
Q 1038 2416 1038 1747 
Q 1038 1081 1263 739 
Q 1488 397 1925 397 
Q 2366 397 2591 739 
Q 2816 1081 2816 1747 
Q 2816 2416 2591 2756 
Q 2366 3097 1925 3097 
z
M 1925 3584 
Q 2653 3584 3039 3112 
Q 3425 2641 3425 1747 
Q 3425 850 3040 379 
Q 2656 -91 1925 -91 
Q 1197 -91 812 379 
Q 428 850 428 1747 
Q 428 2641 812 3112 
Q 1197 3584 1925 3584 
z
" transform="scale(0.015625)"/>
       <path id="DejaVuSansMono-63" d="M 3316 178 
Q 3084 44 2839 -23 
Q 2594 -91 2338 -91 
Q 1525 -91 1067 396 
Q 609 884 609 1747 
Q 609 2609 1067 3096 
Q 1525 3584 2338 3584 
Q 2591 3584 2831 3518 
Q 3072 3453 3316 3316 
L 3316 2713 
Q 3088 2916 2858 3006 
Q 2628 3097 2338 3097 
Q 1797 3097 1506 2747 
Q 1216 2397 1216 1747 
Q 1216 1100 1508 748 
Q 1800 397 2338 397 
Q 2638 397 2875 489 
Q 3113 581 3316 775 
L 3316 178 
z
" transform="scale(0.015625)"/>
       <path id="DejaVuSansMono-6b" d="M 738 4863 
L 1331 4863 
L 1331 2047 
L 2841 3500 
L 3541 3500 
L 2163 2181 
L 3756 0 
L 3053 0 
L 1759 1806 
L 1331 1403 
L 1331 0 
L 738 0 
L 738 4863 
z
" transform="scale(0.015625)"/>
       <path id="DejaVuSansMono-20" transform="scale(0.015625)"/>
       <path id="DejaVuSansMono-79" d="M 2681 1125 
Q 2538 759 2316 163 
Q 2006 -663 1900 -844 
Q 1756 -1088 1540 -1209 
Q 1325 -1331 1038 -1331 
L 575 -1331 
L 575 -850 
L 916 -850 
Q 1169 -850 1312 -703 
Q 1456 -556 1678 56 
L 325 3500 
L 934 3500 
L 1972 763 
L 2994 3500 
L 3603 3500 
L 2681 1125 
z
" transform="scale(0.015625)"/>
       <path id="DejaVuSansMono-65" d="M 3475 1894 
L 3475 1613 
L 984 1613 
L 984 1594 
Q 984 1022 1282 709 
Q 1581 397 2125 397 
Q 2400 397 2700 484 
Q 3000 572 3341 750 
L 3341 178 
Q 3013 44 2708 -23 
Q 2403 -91 2119 -91 
Q 1303 -91 843 398 
Q 384 888 384 1747 
Q 384 2584 834 3084 
Q 1284 3584 2034 3584 
Q 2703 3584 3089 3131 
Q 3475 2678 3475 1894 
z
M 2900 2063 
Q 2888 2569 2661 2833 
Q 2434 3097 2009 3097 
Q 1594 3097 1325 2822 
Q 1056 2547 1006 2059 
L 2900 2063 
z
" transform="scale(0.015625)"/>
       <path id="DejaVuSansMono-73" d="M 3041 3378 
L 3041 2816 
Q 2794 2959 2544 3031 
Q 2294 3103 2034 3103 
Q 1644 3103 1451 2976 
Q 1259 2850 1259 2591 
Q 1259 2356 1403 2240 
Q 1547 2125 2119 2016 
L 2350 1972 
Q 2778 1891 2998 1647 
Q 3219 1403 3219 1013 
Q 3219 494 2850 201 
Q 2481 -91 1825 -91 
Q 1566 -91 1281 -36 
Q 997 19 666 128 
L 666 722 
Q 988 556 1281 473 
Q 1575 391 1838 391 
Q 2219 391 2428 545 
Q 2638 700 2638 978 
Q 2638 1378 1872 1531 
L 1847 1538 
L 1631 1581 
Q 1134 1678 906 1908 
Q 678 2138 678 2534 
Q 678 3038 1018 3311 
Q 1359 3584 1991 3584 
Q 2272 3584 2531 3532 
Q 2791 3481 3041 3378 
z
" transform="scale(0.015625)"/>
      </defs>
      <use xlink:href="#DejaVuSansMono-43"/>
      <use xlink:href="#DejaVuSansMono-6c" x="60.205078"/>
      <use xlink:href="#DejaVuSansMono-6f" x="120.410156"/>
      <use xlink:href="#DejaVuSansMono-63" x="180.615234"/>
      <use xlink:href="#DejaVuSansMono-6b" x="240.820312"/>
      <use xlink:href="#DejaVuSansMono-20" x="301.025391"/>
      <use xlink:href="#DejaVuSansMono-63" x="361.230469"/>
      <use xlink:href="#DejaVuSansMono-79" x="421.435547"/>
      <use xlink:href="#DejaVuSansMono-63" x="481.640625"/>
      <use xlink:href="#DejaVuSansMono-6c" x="541.845703"/>
      <use xlink:href="#DejaVuSansMono-65" x="602.050781"/>
      <use xlink:href="#DejaVuSansMono-73" x="662.255859"/>
     </g>
    </g>
   </g>
   <g id="matplotlib.axis_2">
    <g id="ytick_1">
     <g id="line2d_9">
      <defs>
       <path id="mdc522ac158" d="M 0 0 
L -3.5 0 
" style="stroke: #000000; stroke-width: 0.8"/>
      </defs>
      <g>
       <use xlink:href="#mdc522ac158" x="43.2" y="178.382979" style="stroke: #000000; stroke-width: 0.8"/>
      </g>
     </g>
     <g id="text_10">
      <!-- 0 -->
      <g transform="translate(30.179688 182.20876) scale(0.1 -0.1)">
       <use xlink:href="#DejaVuSansMono-30"/>
      </g>
     </g>
    </g>
    <g id="ytick_2">
     <g id="line2d_10">
      <g>
       <use xlink:href="#mdc522ac158" x="43.2" y="153.824241" style="stroke: #000000; stroke-width: 0.8"/>
      </g>
     </g>
     <g id="text_11">
      <!-- 100 -->
      <g transform="translate(18.139063 157.650023) scale(0.1 -0.1)">
       <use xlink:href="#DejaVuSansMono-31"/>
       <use xlink:href="#DejaVuSansMono-30" x="60.205078"/>
       <use xlink:href="#DejaVuSansMono-30" x="120.410156"/>
      </g>
     </g>
    </g>
    <g id="ytick_3">
     <g id="line2d_11">
      <g>
       <use xlink:href="#mdc522ac158" x="43.2" y="129.265504" style="stroke: #000000; stroke-width: 0.8"/>
      </g>
     </g>
     <g id="text_12">
      <!-- 200 -->
      <g transform="translate(18.139063 133.091285) scale(0.1 -0.1)">
       <use xlink:href="#DejaVuSansMono-32"/>
       <use xlink:href="#DejaVuSansMono-30" x="60.205078"/>
       <use xlink:href="#DejaVuSansMono-30" x="120.410156"/>
      </g>
     </g>
    </g>
    <g id="ytick_4">
     <g id="line2d_12">
      <g>
       <use xlink:href="#mdc522ac158" x="43.2" y="104.706767" style="stroke: #000000; stroke-width: 0.8"/>
      </g>
     </g>
     <g id="text_13">
      <!-- 300 -->
      <g transform="translate(18.139063 108.532548) scale(0.1 -0.1)">
       <use xlink:href="#DejaVuSansMono-33"/>
       <use xlink:href="#DejaVuSansMono-30" x="60.205078"/>
       <use xlink:href="#DejaVuSansMono-30" x="120.410156"/>
      </g>
     </g>
    </g>
    <g id="ytick_5">
     <g id="line2d_13">
      <g>
       <use xlink:href="#mdc522ac158" x="43.2" y="80.14803" style="stroke: #000000; stroke-width: 0.8"/>
      </g>
     </g>
     <g id="text_14">
      <!-- 400 -->
      <g transform="translate(18.139063 83.973811) scale(0.1 -0.1)">
       <use xlink:href="#DejaVuSansMono-34"/>
       <use xlink:href="#DejaVuSansMono-30" x="60.205078"/>
       <use xlink:href="#DejaVuSansMono-30" x="120.410156"/>
      </g>
     </g>
    </g>
    <g id="ytick_6">
     <g id="line2d_14">
      <g>
       <use xlink:href="#mdc522ac158" x="43.2" y="55.589292" style="stroke: #000000; stroke-width: 0.8"/>
      </g>
     </g>
     <g id="text_15">
      <!-- 500 -->
      <g transform="translate(18.139063 59.415074) scale(0.1 -0.1)">
       <use xlink:href="#DejaVuSansMono-35"/>
       <use xlink:href="#DejaVuSansMono-30" x="60.205078"/>
       <use xlink:href="#DejaVuSansMono-30" x="120.410156"/>
      </g>
     </g>
    </g>
    <g id="ytick_7">
     <g id="line2d_15">
      <g>
       <use xlink:href="#mdc522ac158" x="43.2" y="31.030555" style="stroke: #000000; stroke-width: 0.8"/>
      </g>
     </g>
     <g id="text_16">
      <!-- 600 -->
      <g transform="translate(18.139063 34.856336) scale(0.1 -0.1)">
       <defs>
        <path id="DejaVuSansMono-36" d="M 3097 4563 
L 3097 3981 
Q 2900 4097 2678 4158 
Q 2456 4219 2216 4219 
Q 1616 4219 1306 3767 
Q 997 3316 997 2438 
Q 1147 2750 1412 2917 
Q 1678 3084 2022 3084 
Q 2697 3084 3067 2670 
Q 3438 2256 3438 1497 
Q 3438 741 3056 325 
Q 2675 -91 1984 -91 
Q 1172 -91 794 492 
Q 416 1075 416 2328 
Q 416 3509 870 4129 
Q 1325 4750 2188 4750 
Q 2419 4750 2650 4701 
Q 2881 4653 3097 4563 
z
M 1972 2591 
Q 1569 2591 1337 2300 
Q 1106 2009 1106 1497 
Q 1106 984 1337 693 
Q 1569 403 1972 403 
Q 2391 403 2603 679 
Q 2816 956 2816 1497 
Q 2816 2041 2603 2316 
Q 2391 2591 1972 2591 
z
" transform="scale(0.015625)"/>
       </defs>
       <use xlink:href="#DejaVuSansMono-36"/>
       <use xlink:href="#DejaVuSansMono-30" x="60.205078"/>
       <use xlink:href="#DejaVuSansMono-30" x="120.410156"/>
      </g>
     </g>
    </g>
    <g id="text_17">
     <!-- Count -->
     <g transform="translate(12.059375 115.042271) rotate(-90) scale(0.1 -0.1)">
      <defs>
       <path id="DejaVuSansMono-75" d="M 609 1325 
L 609 3494 
L 1184 3494 
L 1184 1325 
Q 1184 853 1351 631 
Q 1519 409 1869 409 
Q 2275 409 2490 695 
Q 2706 981 2706 1516 
L 2706 3494 
L 3284 3494 
L 3284 0 
L 2706 0 
L 2706 525 
Q 2553 222 2289 65 
Q 2025 -91 1672 -91 
Q 1134 -91 871 261 
Q 609 613 609 1325 
z
" transform="scale(0.015625)"/>
       <path id="DejaVuSansMono-6e" d="M 3284 2169 
L 3284 0 
L 2706 0 
L 2706 2169 
Q 2706 2641 2540 2862 
Q 2375 3084 2022 3084 
Q 1619 3084 1401 2798 
Q 1184 2513 1184 1978 
L 1184 0 
L 609 0 
L 609 3500 
L 1184 3500 
L 1184 2975 
Q 1338 3275 1600 3429 
Q 1863 3584 2222 3584 
Q 2756 3584 3020 3232 
Q 3284 2881 3284 2169 
z
" transform="scale(0.015625)"/>
       <path id="DejaVuSansMono-74" d="M 1919 4494 
L 1919 3500 
L 3225 3500 
L 3225 3053 
L 1919 3053 
L 1919 1153 
Q 1919 766 2066 612 
Q 2213 459 2578 459 
L 3225 459 
L 3225 0 
L 2522 0 
Q 1875 0 1609 259 
Q 1344 519 1344 1153 
L 1344 3053 
L 409 3053 
L 409 3500 
L 1344 3500 
L 1344 4494 
L 1919 4494 
z
" transform="scale(0.015625)"/>
      </defs>
      <use xlink:href="#DejaVuSansMono-43"/>
      <use xlink:href="#DejaVuSansMono-6f" x="60.205078"/>
      <use xlink:href="#DejaVuSansMono-75" x="120.410156"/>
      <use xlink:href="#DejaVuSansMono-6e" x="180.615234"/>
      <use xlink:href="#DejaVuSansMono-74" x="240.820312"/>
     </g>
    </g>
   </g>
   <g id="line2d_16">
    <path d="M 59.773284 173.203665 
L 68.101567 172.086135 
L 74.764193 171.415795 
L 83.092476 170.84324 
L 93.086416 170.423266 
L 101.4147 170.268786 
L 108.077326 170.351993 
L 114.739953 170.703116 
L 121.402579 171.341761 
L 133.062176 172.831738 
L 139.724802 173.524286 
L 144.721772 173.776784 
L 148.053085 173.770305 
L 151.384399 173.605195 
L 154.715712 173.275275 
L 158.047025 172.784201 
L 163.043995 171.778264 
L 168.040965 170.52991 
L 179.700561 167.435679 
L 184.697531 166.404014 
L 188.028845 165.917551 
L 191.360158 165.625151 
L 194.691471 165.542581 
L 198.022785 165.673141 
L 201.354098 166.007513 
L 204.685411 166.52462 
L 209.682381 167.572918 
L 216.345008 169.267073 
L 224.673291 171.383536 
L 229.670261 172.44042 
L 234.667231 173.247683 
L 239.6642 173.780014 
L 244.66117 174.04492 
L 249.65814 174.066781 
L 254.65511 173.867327 
L 259.65208 173.447347 
L 264.64905 172.774763 
L 267.980363 172.154602 
L 271.311677 171.367725 
L 274.64299 170.387422 
L 277.974303 169.190259 
L 281.305616 167.761103 
L 284.63693 166.098275 
L 287.968243 164.218103 
L 292.965213 161.078676 
L 302.959153 154.577791 
L 306.290466 152.711774 
L 309.621779 151.174947 
L 312.953093 150.059656 
L 314.618749 149.682721 
L 316.284406 149.434646 
L 317.950062 149.319064 
L 319.615719 149.337324 
L 321.281376 149.488419 
L 322.947032 149.768985 
L 324.612689 150.173353 
L 327.944002 151.320046 
L 331.275316 152.842827 
L 334.606629 154.631905 
L 346.266225 161.204091 
L 349.597539 162.70985 
L 352.928852 163.907446 
L 356.260165 164.76644 
L 359.591478 165.287978 
L 362.922792 165.50238 
L 366.254105 165.464378 
L 371.251075 165.096012 
L 379.579358 164.347171 
L 382.910671 164.224592 
L 386.241985 164.288396 
L 389.573298 164.568919 
L 391.238955 164.794101 
L 391.238955 164.794101 
" clip-path="url(#pf69c9269e2)" style="fill: none; stroke: #1f77b4; stroke-width: 1.5; stroke-linecap: square"/>
   </g>
   <g id="patch_33">
    <path d="M 43.2 178.382979 
L 43.2 21.6 
" style="fill: none; stroke: #000000; stroke-width: 0.8; stroke-linejoin: miter; stroke-linecap: square"/>
   </g>
   <g id="patch_34">
    <path d="M 407.812238 178.382979 
L 407.812238 21.6 
" style="fill: none; stroke: #000000; stroke-width: 0.8; stroke-linejoin: miter; stroke-linecap: square"/>
   </g>
   <g id="patch_35">
    <path d="M 43.2 178.382979 
L 407.812238 178.382979 
" style="fill: none; stroke: #000000; stroke-width: 0.8; stroke-linejoin: miter; stroke-linecap: square"/>
   </g>
   <g id="patch_36">
    <path d="M 43.2 21.6 
L 407.812238 21.6 
" style="fill: none; stroke: #000000; stroke-width: 0.8; stroke-linejoin: miter; stroke-linecap: square"/>
   </g>
   <g id="text_18">
    <!-- memalign (ALL) -->
    <g transform="translate(174.935494 15.6) scale(0.12 -0.12)">
     <defs>
      <path id="DejaVuSansMono-6d" d="M 2113 3144 
Q 2219 3369 2383 3476 
Q 2547 3584 2778 3584 
Q 3200 3584 3373 3257 
Q 3547 2931 3547 2028 
L 3547 0 
L 3022 0 
L 3022 2003 
Q 3022 2744 2939 2923 
Q 2856 3103 2638 3103 
Q 2388 3103 2295 2911 
Q 2203 2719 2203 2003 
L 2203 0 
L 1678 0 
L 1678 2003 
Q 1678 2753 1589 2928 
Q 1500 3103 1269 3103 
Q 1041 3103 952 2911 
Q 863 2719 863 2003 
L 863 0 
L 341 0 
L 341 3500 
L 863 3500 
L 863 3200 
Q 966 3388 1120 3486 
Q 1275 3584 1472 3584 
Q 1709 3584 1867 3475 
Q 2025 3366 2113 3144 
z
" transform="scale(0.015625)"/>
      <path id="DejaVuSansMono-61" d="M 2194 1759 
L 2003 1759 
Q 1500 1759 1245 1582 
Q 991 1406 991 1056 
Q 991 741 1181 566 
Q 1372 391 1709 391 
Q 2184 391 2456 720 
Q 2728 1050 2731 1631 
L 2731 1759 
L 2194 1759 
z
M 3309 1997 
L 3309 0 
L 2731 0 
L 2731 519 
Q 2547 206 2267 57 
Q 1988 -91 1588 -91 
Q 1053 -91 734 211 
Q 416 513 416 1019 
Q 416 1603 808 1906 
Q 1200 2209 1959 2209 
L 2731 2209 
L 2731 2300 
Q 2728 2719 2518 2908 
Q 2309 3097 1850 3097 
Q 1556 3097 1256 3012 
Q 956 2928 672 2766 
L 672 3341 
Q 991 3463 1283 3523 
Q 1575 3584 1850 3584 
Q 2284 3584 2592 3456 
Q 2900 3328 3091 3072 
Q 3209 2916 3259 2686 
Q 3309 2456 3309 1997 
z
" transform="scale(0.015625)"/>
      <path id="DejaVuSansMono-69" d="M 800 3500 
L 2272 3500 
L 2272 447 
L 3413 447 
L 3413 0 
L 556 0 
L 556 447 
L 1697 447 
L 1697 3053 
L 800 3053 
L 800 3500 
z
M 1697 4863 
L 2272 4863 
L 2272 4134 
L 1697 4134 
L 1697 4863 
z
" transform="scale(0.015625)"/>
      <path id="DejaVuSansMono-67" d="M 2681 1778 
Q 2681 2425 2470 2761 
Q 2259 3097 1856 3097 
Q 1434 3097 1212 2761 
Q 991 2425 991 1778 
Q 991 1131 1214 792 
Q 1438 453 1863 453 
Q 2259 453 2470 793 
Q 2681 1134 2681 1778 
z
M 3256 225 
Q 3256 -563 2884 -969 
Q 2513 -1375 1791 -1375 
Q 1553 -1375 1293 -1331 
Q 1034 -1288 775 -1203 
L 775 -634 
Q 1081 -778 1331 -847 
Q 1581 -916 1791 -916 
Q 2256 -916 2468 -662 
Q 2681 -409 2681 141 
L 2681 166 
L 2681 556 
Q 2544 263 2306 119 
Q 2069 -25 1728 -25 
Q 1116 -25 750 465 
Q 384 956 384 1778 
Q 384 2603 750 3093 
Q 1116 3584 1728 3584 
Q 2066 3584 2300 3450 
Q 2534 3316 2681 3034 
L 2681 3488 
L 3256 3488 
L 3256 225 
z
" transform="scale(0.015625)"/>
      <path id="DejaVuSansMono-28" d="M 2766 4856 
Q 2350 4144 2145 3436 
Q 1941 2728 1941 2009 
Q 1941 1294 2145 584 
Q 2350 -125 2766 -844 
L 2266 -844 
Q 1794 -100 1562 604 
Q 1331 1309 1331 2009 
Q 1331 2706 1562 3412 
Q 1794 4119 2266 4856 
L 2766 4856 
z
" transform="scale(0.015625)"/>
      <path id="DejaVuSansMono-41" d="M 1925 4109 
L 1259 1722 
L 2591 1722 
L 1925 4109 
z
M 1544 4666 
L 2309 4666 
L 3738 0 
L 3084 0 
L 2741 1216 
L 1106 1216 
L 769 0 
L 116 0 
L 1544 4666 
z
" transform="scale(0.015625)"/>
      <path id="DejaVuSansMono-4c" d="M 672 4666 
L 1306 4666 
L 1306 531 
L 3559 531 
L 3559 0 
L 672 0 
L 672 4666 
z
" transform="scale(0.015625)"/>
      <path id="DejaVuSansMono-29" d="M 1088 4856 
L 1588 4856 
Q 2059 4119 2290 3412 
Q 2522 2706 2522 2009 
Q 2522 1306 2290 600 
Q 2059 -106 1588 -844 
L 1088 -844 
Q 1503 -119 1708 590 
Q 1913 1300 1913 2009 
Q 1913 2722 1708 3431 
Q 1503 4141 1088 4856 
z
" transform="scale(0.015625)"/>
     </defs>
     <use xlink:href="#DejaVuSansMono-6d"/>
     <use xlink:href="#DejaVuSansMono-65" x="60.205078"/>
     <use xlink:href="#DejaVuSansMono-6d" x="120.410156"/>
     <use xlink:href="#DejaVuSansMono-61" x="180.615234"/>
     <use xlink:href="#DejaVuSansMono-6c" x="240.820312"/>
     <use xlink:href="#DejaVuSansMono-69" x="301.025391"/>
     <use xlink:href="#DejaVuSansMono-67" x="361.230469"/>
     <use xlink:href="#DejaVuSansMono-6e" x="421.435547"/>
     <use xlink:href="#DejaVuSansMono-20" x="481.640625"/>
     <use xlink:href="#DejaVuSansMono-28" x="541.845703"/>
     <use xlink:href="#DejaVuSansMono-41" x="602.050781"/>
     <use xlink:href="#DejaVuSansMono-4c" x="662.255859"/>
     <use xlink:href="#DejaVuSansMono-4c" x="722.460938"/>
     <use xlink:href="#DejaVuSansMono-29" x="782.666016"/>
    </g>
   </g>
  </g>
  <g id="axes_2">
   <g id="patch_37">
    <path d="M 456.187762 178.382979 
L 820.8 178.382979 
L 820.8 21.6 
L 456.187762 21.6 
z
" style="fill: #ffffff"/>
   </g>
   <g id="patch_38">
    <path d="M 472.761045 178.382979 
L 483.809901 178.382979 
L 483.809901 167.219082 
L 472.761045 167.219082 
z
" clip-path="url(#p9e425dd875)" style="fill: #1f77b4; fill-opacity: 0.5; stroke: #000000; stroke-width: 0.922314; stroke-linejoin: miter"/>
   </g>
   <g id="patch_39">
    <path d="M 483.809901 178.382979 
L 494.858757 178.382979 
L 494.858757 178.382979 
L 483.809901 178.382979 
z
" clip-path="url(#p9e425dd875)" style="fill: #1f77b4; fill-opacity: 0.5; stroke: #000000; stroke-width: 0.922314; stroke-linejoin: miter"/>
   </g>
   <g id="patch_40">
    <path d="M 494.858757 178.382979 
L 505.907613 178.382979 
L 505.907613 178.382979 
L 494.858757 178.382979 
z
" clip-path="url(#p9e425dd875)" style="fill: #1f77b4; fill-opacity: 0.5; stroke: #000000; stroke-width: 0.922314; stroke-linejoin: miter"/>
   </g>
   <g id="patch_41">
    <path d="M 505.907613 178.382979 
L 516.956468 178.382979 
L 516.956468 178.382979 
L 505.907613 178.382979 
z
" clip-path="url(#p9e425dd875)" style="fill: #1f77b4; fill-opacity: 0.5; stroke: #000000; stroke-width: 0.922314; stroke-linejoin: miter"/>
   </g>
   <g id="patch_42">
    <path d="M 516.956468 178.382979 
L 528.005324 178.382979 
L 528.005324 178.382979 
L 516.956468 178.382979 
z
" clip-path="url(#p9e425dd875)" style="fill: #1f77b4; fill-opacity: 0.5; stroke: #000000; stroke-width: 0.922314; stroke-linejoin: miter"/>
   </g>
   <g id="patch_43">
    <path d="M 528.005324 178.382979 
L 539.05418 178.382979 
L 539.05418 178.382979 
L 528.005324 178.382979 
z
" clip-path="url(#p9e425dd875)" style="fill: #1f77b4; fill-opacity: 0.5; stroke: #000000; stroke-width: 0.922314; stroke-linejoin: miter"/>
   </g>
   <g id="patch_44">
    <path d="M 539.05418 178.382979 
L 550.103035 178.382979 
L 550.103035 29.065856 
L 539.05418 29.065856 
z
" clip-path="url(#p9e425dd875)" style="fill: #1f77b4; fill-opacity: 0.5; stroke: #000000; stroke-width: 0.922314; stroke-linejoin: miter"/>
   </g>
   <g id="patch_45">
    <path d="M 550.103035 178.382979 
L 561.151891 178.382979 
L 561.151891 178.382979 
L 550.103035 178.382979 
z
" clip-path="url(#p9e425dd875)" style="fill: #1f77b4; fill-opacity: 0.5; stroke: #000000; stroke-width: 0.922314; stroke-linejoin: miter"/>
   </g>
   <g id="patch_46">
    <path d="M 561.151891 178.382979 
L 572.200747 178.382979 
L 572.200747 178.382979 
L 561.151891 178.382979 
z
" clip-path="url(#p9e425dd875)" style="fill: #1f77b4; fill-opacity: 0.5; stroke: #000000; stroke-width: 0.922314; stroke-linejoin: miter"/>
   </g>
   <g id="patch_47">
    <path d="M 572.200747 178.382979 
L 583.249602 178.382979 
L 583.249602 178.382979 
L 572.200747 178.382979 
z
" clip-path="url(#p9e425dd875)" style="fill: #1f77b4; fill-opacity: 0.5; stroke: #000000; stroke-width: 0.922314; stroke-linejoin: miter"/>
   </g>
   <g id="patch_48">
    <path d="M 583.249602 178.382979 
L 594.298458 178.382979 
L 594.298458 178.382979 
L 583.249602 178.382979 
z
" clip-path="url(#p9e425dd875)" style="fill: #1f77b4; fill-opacity: 0.5; stroke: #000000; stroke-width: 0.922314; stroke-linejoin: miter"/>
   </g>
   <g id="patch_49">
    <path d="M 594.298458 178.382979 
L 605.347314 178.382979 
L 605.347314 178.382979 
L 594.298458 178.382979 
z
" clip-path="url(#p9e425dd875)" style="fill: #1f77b4; fill-opacity: 0.5; stroke: #000000; stroke-width: 0.922314; stroke-linejoin: miter"/>
   </g>
   <g id="patch_50">
    <path d="M 605.347314 178.382979 
L 616.39617 178.382979 
L 616.39617 178.382979 
L 605.347314 178.382979 
z
" clip-path="url(#p9e425dd875)" style="fill: #1f77b4; fill-opacity: 0.5; stroke: #000000; stroke-width: 0.922314; stroke-linejoin: miter"/>
   </g>
   <g id="patch_51">
    <path d="M 616.39617 178.382979 
L 627.445025 178.382979 
L 627.445025 178.382979 
L 616.39617 178.382979 
z
" clip-path="url(#p9e425dd875)" style="fill: #1f77b4; fill-opacity: 0.5; stroke: #000000; stroke-width: 0.922314; stroke-linejoin: miter"/>
   </g>
   <g id="patch_52">
    <path d="M 627.445025 178.382979 
L 638.493881 178.382979 
L 638.493881 178.382979 
L 627.445025 178.382979 
z
" clip-path="url(#p9e425dd875)" style="fill: #1f77b4; fill-opacity: 0.5; stroke: #000000; stroke-width: 0.922314; stroke-linejoin: miter"/>
   </g>
   <g id="patch_53">
    <path d="M 638.493881 178.382979 
L 649.542737 178.382979 
L 649.542737 176.987492 
L 638.493881 176.987492 
z
" clip-path="url(#p9e425dd875)" style="fill: #1f77b4; fill-opacity: 0.5; stroke: #000000; stroke-width: 0.922314; stroke-linejoin: miter"/>
   </g>
   <g id="patch_54">
    <path d="M 649.542737 178.382979 
L 660.591592 178.382979 
L 660.591592 178.382979 
L 649.542737 178.382979 
z
" clip-path="url(#p9e425dd875)" style="fill: #1f77b4; fill-opacity: 0.5; stroke: #000000; stroke-width: 0.922314; stroke-linejoin: miter"/>
   </g>
   <g id="patch_55">
    <path d="M 660.591592 178.382979 
L 671.640448 178.382979 
L 671.640448 178.382979 
L 660.591592 178.382979 
z
" clip-path="url(#p9e425dd875)" style="fill: #1f77b4; fill-opacity: 0.5; stroke: #000000; stroke-width: 0.922314; stroke-linejoin: miter"/>
   </g>
   <g id="patch_56">
    <path d="M 671.640448 178.382979 
L 682.689304 178.382979 
L 682.689304 178.382979 
L 671.640448 178.382979 
z
" clip-path="url(#p9e425dd875)" style="fill: #1f77b4; fill-opacity: 0.5; stroke: #000000; stroke-width: 0.922314; stroke-linejoin: miter"/>
   </g>
   <g id="patch_57">
    <path d="M 682.689304 178.382979 
L 693.738159 178.382979 
L 693.738159 178.382979 
L 682.689304 178.382979 
z
" clip-path="url(#p9e425dd875)" style="fill: #1f77b4; fill-opacity: 0.5; stroke: #000000; stroke-width: 0.922314; stroke-linejoin: miter"/>
   </g>
   <g id="patch_58">
    <path d="M 693.738159 178.382979 
L 704.787015 178.382979 
L 704.787015 178.382979 
L 693.738159 178.382979 
z
" clip-path="url(#p9e425dd875)" style="fill: #1f77b4; fill-opacity: 0.5; stroke: #000000; stroke-width: 0.922314; stroke-linejoin: miter"/>
   </g>
   <g id="patch_59">
    <path d="M 704.787015 178.382979 
L 715.835871 178.382979 
L 715.835871 178.382979 
L 704.787015 178.382979 
z
" clip-path="url(#p9e425dd875)" style="fill: #1f77b4; fill-opacity: 0.5; stroke: #000000; stroke-width: 0.922314; stroke-linejoin: miter"/>
   </g>
   <g id="patch_60">
    <path d="M 715.835871 178.382979 
L 726.884727 178.382979 
L 726.884727 178.382979 
L 715.835871 178.382979 
z
" clip-path="url(#p9e425dd875)" style="fill: #1f77b4; fill-opacity: 0.5; stroke: #000000; stroke-width: 0.922314; stroke-linejoin: miter"/>
   </g>
   <g id="patch_61">
    <path d="M 726.884727 178.382979 
L 737.933582 178.382979 
L 737.933582 178.382979 
L 726.884727 178.382979 
z
" clip-path="url(#p9e425dd875)" style="fill: #1f77b4; fill-opacity: 0.5; stroke: #000000; stroke-width: 0.922314; stroke-linejoin: miter"/>
   </g>
   <g id="patch_62">
    <path d="M 737.933582 178.382979 
L 748.982438 178.382979 
L 748.982438 178.382979 
L 737.933582 178.382979 
z
" clip-path="url(#p9e425dd875)" style="fill: #1f77b4; fill-opacity: 0.5; stroke: #000000; stroke-width: 0.922314; stroke-linejoin: miter"/>
   </g>
   <g id="patch_63">
    <path d="M 748.982438 178.382979 
L 760.031294 178.382979 
L 760.031294 110.004109 
L 748.982438 110.004109 
z
" clip-path="url(#p9e425dd875)" style="fill: #1f77b4; fill-opacity: 0.5; stroke: #000000; stroke-width: 0.922314; stroke-linejoin: miter"/>
   </g>
   <g id="patch_64">
    <path d="M 760.031294 178.382979 
L 771.080149 178.382979 
L 771.080149 178.382979 
L 760.031294 178.382979 
z
" clip-path="url(#p9e425dd875)" style="fill: #1f77b4; fill-opacity: 0.5; stroke: #000000; stroke-width: 0.922314; stroke-linejoin: miter"/>
   </g>
   <g id="patch_65">
    <path d="M 771.080149 178.382979 
L 782.129005 178.382979 
L 782.129005 178.382979 
L 771.080149 178.382979 
z
" clip-path="url(#p9e425dd875)" style="fill: #1f77b4; fill-opacity: 0.5; stroke: #000000; stroke-width: 0.922314; stroke-linejoin: miter"/>
   </g>
   <g id="patch_66">
    <path d="M 782.129005 178.382979 
L 793.177861 178.382979 
L 793.177861 178.382979 
L 782.129005 178.382979 
z
" clip-path="url(#p9e425dd875)" style="fill: #1f77b4; fill-opacity: 0.5; stroke: #000000; stroke-width: 0.922314; stroke-linejoin: miter"/>
   </g>
   <g id="patch_67">
    <path d="M 793.177861 178.382979 
L 804.226716 178.382979 
L 804.226716 47.207189 
L 793.177861 47.207189 
z
" clip-path="url(#p9e425dd875)" style="fill: #1f77b4; fill-opacity: 0.5; stroke: #000000; stroke-width: 0.922314; stroke-linejoin: miter"/>
   </g>
   <g id="matplotlib.axis_3">
    <g id="xtick_9">
     <g id="line2d_17">
      <g>
       <use xlink:href="#m9d766efb75" x="495.233294" y="178.382979" style="stroke: #000000; stroke-width: 0.8"/>
      </g>
     </g>
     <g id="text_19">
      <!-- 70 -->
      <g transform="translate(489.212982 193.034541) scale(0.1 -0.1)">
       <defs>
        <path id="DejaVuSansMono-37" d="M 434 4666 
L 3372 4666 
L 3372 4397 
L 1703 0 
L 1044 0 
L 2669 4134 
L 434 4134 
L 434 4666 
z
" transform="scale(0.015625)"/>
       </defs>
       <use xlink:href="#DejaVuSansMono-37"/>
       <use xlink:href="#DejaVuSansMono-30" x="60.205078"/>
      </g>
     </g>
    </g>
    <g id="xtick_10">
     <g id="line2d_18">
      <g>
       <use xlink:href="#m9d766efb75" x="551.413917" y="178.382979" style="stroke: #000000; stroke-width: 0.8"/>
      </g>
     </g>
     <g id="text_20">
      <!-- 80 -->
      <g transform="translate(545.393604 193.034541) scale(0.1 -0.1)">
       <defs>
        <path id="DejaVuSansMono-38" d="M 1925 2216 
Q 1503 2216 1273 1980 
Q 1044 1744 1044 1313 
Q 1044 881 1276 642 
Q 1509 403 1925 403 
Q 2350 403 2579 639 
Q 2809 875 2809 1313 
Q 2809 1741 2576 1978 
Q 2344 2216 1925 2216 
z
M 1375 2478 
Q 972 2581 745 2862 
Q 519 3144 519 3541 
Q 519 4097 897 4423 
Q 1275 4750 1925 4750 
Q 2578 4750 2956 4423 
Q 3334 4097 3334 3541 
Q 3334 3144 3107 2862 
Q 2881 2581 2478 2478 
Q 2947 2375 3195 2062 
Q 3444 1750 3444 1253 
Q 3444 622 3041 265 
Q 2638 -91 1925 -91 
Q 1213 -91 811 264 
Q 409 619 409 1247 
Q 409 1747 657 2061 
Q 906 2375 1375 2478 
z
M 1147 3481 
Q 1147 3106 1347 2909 
Q 1547 2713 1925 2713 
Q 2306 2713 2506 2909 
Q 2706 3106 2706 3481 
Q 2706 3863 2507 4063 
Q 2309 4263 1925 4263 
Q 1547 4263 1347 4061 
Q 1147 3859 1147 3481 
z
" transform="scale(0.015625)"/>
       </defs>
       <use xlink:href="#DejaVuSansMono-38"/>
       <use xlink:href="#DejaVuSansMono-30" x="60.205078"/>
      </g>
     </g>
    </g>
    <g id="xtick_11">
     <g id="line2d_19">
      <g>
       <use xlink:href="#m9d766efb75" x="607.594539" y="178.382979" style="stroke: #000000; stroke-width: 0.8"/>
      </g>
     </g>
     <g id="text_21">
      <!-- 90 -->
      <g transform="translate(601.574226 193.034541) scale(0.1 -0.1)">
       <defs>
        <path id="DejaVuSansMono-39" d="M 1863 2069 
Q 2266 2069 2495 2359 
Q 2725 2650 2725 3163 
Q 2725 3675 2495 3965 
Q 2266 4256 1863 4256 
Q 1444 4256 1231 3979 
Q 1019 3703 1019 3163 
Q 1019 2619 1230 2344 
Q 1441 2069 1863 2069 
z
M 738 97 
L 738 678 
Q 934 563 1156 502 
Q 1378 441 1619 441 
Q 2219 441 2526 892 
Q 2834 1344 2834 2222 
Q 2688 1909 2422 1742 
Q 2156 1575 1813 1575 
Q 1138 1575 767 1990 
Q 397 2406 397 3169 
Q 397 3922 776 4336 
Q 1156 4750 1850 4750 
Q 2663 4750 3041 4165 
Q 3419 3581 3419 2328 
Q 3419 1150 2964 529 
Q 2509 -91 1644 -91 
Q 1416 -91 1184 -42 
Q 953 6 738 97 
z
" transform="scale(0.015625)"/>
       </defs>
       <use xlink:href="#DejaVuSansMono-39"/>
       <use xlink:href="#DejaVuSansMono-30" x="60.205078"/>
      </g>
     </g>
    </g>
    <g id="xtick_12">
     <g id="line2d_20">
      <g>
       <use xlink:href="#m9d766efb75" x="663.775161" y="178.382979" style="stroke: #000000; stroke-width: 0.8"/>
      </g>
     </g>
     <g id="text_22">
      <!-- 100 -->
      <g transform="translate(654.744692 193.034541) scale(0.1 -0.1)">
       <use xlink:href="#DejaVuSansMono-31"/>
       <use xlink:href="#DejaVuSansMono-30" x="60.205078"/>
       <use xlink:href="#DejaVuSansMono-30" x="120.410156"/>
      </g>
     </g>
    </g>
    <g id="xtick_13">
     <g id="line2d_21">
      <g>
       <use xlink:href="#m9d766efb75" x="719.955783" y="178.382979" style="stroke: #000000; stroke-width: 0.8"/>
      </g>
     </g>
     <g id="text_23">
      <!-- 110 -->
      <g transform="translate(710.925314 193.034541) scale(0.1 -0.1)">
       <use xlink:href="#DejaVuSansMono-31"/>
       <use xlink:href="#DejaVuSansMono-31" x="60.205078"/>
       <use xlink:href="#DejaVuSansMono-30" x="120.410156"/>
      </g>
     </g>
    </g>
    <g id="xtick_14">
     <g id="line2d_22">
      <g>
       <use xlink:href="#m9d766efb75" x="776.136405" y="178.382979" style="stroke: #000000; stroke-width: 0.8"/>
      </g>
     </g>
     <g id="text_24">
      <!-- 120 -->
      <g transform="translate(767.105937 193.034541) scale(0.1 -0.1)">
       <use xlink:href="#DejaVuSansMono-31"/>
       <use xlink:href="#DejaVuSansMono-32" x="60.205078"/>
       <use xlink:href="#DejaVuSansMono-30" x="120.410156"/>
      </g>
     </g>
    </g>
    <g id="text_25">
     <!-- Clock cycles -->
     <g transform="translate(602.372006 206.765791) scale(0.1 -0.1)">
      <use xlink:href="#DejaVuSansMono-43"/>
      <use xlink:href="#DejaVuSansMono-6c" x="60.205078"/>
      <use xlink:href="#DejaVuSansMono-6f" x="120.410156"/>
      <use xlink:href="#DejaVuSansMono-63" x="180.615234"/>
      <use xlink:href="#DejaVuSansMono-6b" x="240.820312"/>
      <use xlink:href="#DejaVuSansMono-20" x="301.025391"/>
      <use xlink:href="#DejaVuSansMono-63" x="361.230469"/>
      <use xlink:href="#DejaVuSansMono-79" x="421.435547"/>
      <use xlink:href="#DejaVuSansMono-63" x="481.640625"/>
      <use xlink:href="#DejaVuSansMono-6c" x="541.845703"/>
      <use xlink:href="#DejaVuSansMono-65" x="602.050781"/>
      <use xlink:href="#DejaVuSansMono-73" x="662.255859"/>
     </g>
    </g>
   </g>
   <g id="matplotlib.axis_4">
    <g id="ytick_8">
     <g id="line2d_23">
      <g>
       <use xlink:href="#mdc522ac158" x="456.187762" y="178.382979" style="stroke: #000000; stroke-width: 0.8"/>
      </g>
     </g>
     <g id="text_26">
      <!-- 0 -->
      <g transform="translate(443.167449 182.20876) scale(0.1 -0.1)">
       <use xlink:href="#DejaVuSansMono-30"/>
      </g>
     </g>
    </g>
    <g id="ytick_9">
     <g id="line2d_24">
      <g>
       <use xlink:href="#mdc522ac158" x="456.187762" y="150.473236" style="stroke: #000000; stroke-width: 0.8"/>
      </g>
     </g>
     <g id="text_27">
      <!-- 20 -->
      <g transform="translate(437.147137 154.299017) scale(0.1 -0.1)">
       <use xlink:href="#DejaVuSansMono-32"/>
       <use xlink:href="#DejaVuSansMono-30" x="60.205078"/>
      </g>
     </g>
    </g>
    <g id="ytick_10">
     <g id="line2d_25">
      <g>
       <use xlink:href="#mdc522ac158" x="456.187762" y="122.563494" style="stroke: #000000; stroke-width: 0.8"/>
      </g>
     </g>
     <g id="text_28">
      <!-- 40 -->
      <g transform="translate(437.147137 126.389275) scale(0.1 -0.1)">
       <use xlink:href="#DejaVuSansMono-34"/>
       <use xlink:href="#DejaVuSansMono-30" x="60.205078"/>
      </g>
     </g>
    </g>
    <g id="ytick_11">
     <g id="line2d_26">
      <g>
       <use xlink:href="#mdc522ac158" x="456.187762" y="94.653751" style="stroke: #000000; stroke-width: 0.8"/>
      </g>
     </g>
     <g id="text_29">
      <!-- 60 -->
      <g transform="translate(437.147137 98.479532) scale(0.1 -0.1)">
       <use xlink:href="#DejaVuSansMono-36"/>
       <use xlink:href="#DejaVuSansMono-30" x="60.205078"/>
      </g>
     </g>
    </g>
    <g id="ytick_12">
     <g id="line2d_27">
      <g>
       <use xlink:href="#mdc522ac158" x="456.187762" y="66.744009" style="stroke: #000000; stroke-width: 0.8"/>
      </g>
     </g>
     <g id="text_30">
      <!-- 80 -->
      <g transform="translate(437.147137 70.56979) scale(0.1 -0.1)">
       <use xlink:href="#DejaVuSansMono-38"/>
       <use xlink:href="#DejaVuSansMono-30" x="60.205078"/>
      </g>
     </g>
    </g>
    <g id="ytick_13">
     <g id="line2d_28">
      <g>
       <use xlink:href="#mdc522ac158" x="456.187762" y="38.834266" style="stroke: #000000; stroke-width: 0.8"/>
      </g>
     </g>
     <g id="text_31">
      <!-- 100 -->
      <g transform="translate(431.126824 42.660047) scale(0.1 -0.1)">
       <use xlink:href="#DejaVuSansMono-31"/>
       <use xlink:href="#DejaVuSansMono-30" x="60.205078"/>
       <use xlink:href="#DejaVuSansMono-30" x="120.410156"/>
      </g>
     </g>
    </g>
    <g id="text_32">
     <!-- Count -->
     <g transform="translate(425.047137 115.042271) rotate(-90) scale(0.1 -0.1)">
      <use xlink:href="#DejaVuSansMono-43"/>
      <use xlink:href="#DejaVuSansMono-6f" x="60.205078"/>
      <use xlink:href="#DejaVuSansMono-75" x="120.410156"/>
      <use xlink:href="#DejaVuSansMono-6e" x="180.615234"/>
      <use xlink:href="#DejaVuSansMono-74" x="240.820312"/>
     </g>
    </g>
   </g>
   <g id="line2d_29">
    <path d="M 472.761045 173.91105 
L 481.089329 172.599381 
L 489.417612 171.051156 
L 499.411552 168.949995 
L 517.733775 165.008447 
L 524.396401 163.806874 
L 531.059028 162.865567 
L 536.055998 162.375247 
L 541.052968 162.096277 
L 546.049938 162.043177 
L 551.046907 162.220599 
L 556.043877 162.6229 
L 561.040847 163.234499 
L 567.703474 164.332259 
L 574.3661 165.681251 
L 584.36004 167.978457 
L 599.35095 171.448803 
L 607.679233 173.133447 
L 614.34186 174.283777 
L 621.004486 175.240381 
L 627.667113 176.002568 
L 635.995396 176.697346 
L 644.323679 177.133974 
L 652.651962 177.343075 
L 660.980246 177.346824 
L 669.308529 177.154756 
L 677.636812 176.764234 
L 685.965095 176.164588 
L 694.293378 175.3435 
L 702.621662 174.294049 
L 710.949945 173.020946 
L 719.278228 171.544891 
L 729.272168 169.56147 
L 760.919644 163.057558 
L 767.58227 161.965437 
L 774.244897 161.085411 
L 780.907524 160.465825 
L 785.904493 160.196935 
L 790.901463 160.110613 
L 795.898433 160.214999 
L 800.895403 160.512579 
L 804.226716 160.816701 
L 804.226716 160.816701 
" clip-path="url(#p9e425dd875)" style="fill: none; stroke: #1f77b4; stroke-width: 1.5; stroke-linecap: square"/>
   </g>
   <g id="patch_68">
    <path d="M 456.187762 178.382979 
L 456.187762 21.6 
" style="fill: none; stroke: #000000; stroke-width: 0.8; stroke-linejoin: miter; stroke-linecap: square"/>
   </g>
   <g id="patch_69">
    <path d="M 820.8 178.382979 
L 820.8 21.6 
" style="fill: none; stroke: #000000; stroke-width: 0.8; stroke-linejoin: miter; stroke-linecap: square"/>
   </g>
   <g id="patch_70">
    <path d="M 456.187762 178.382979 
L 820.8 178.382979 
" style="fill: none; stroke: #000000; stroke-width: 0.8; stroke-linejoin: miter; stroke-linecap: square"/>
   </g>
   <g id="patch_71">
    <path d="M 456.187762 21.6 
L 820.8 21.6 
" style="fill: none; stroke: #000000; stroke-width: 0.8; stroke-linejoin: miter; stroke-linecap: square"/>
   </g>
   <g id="text_33">
    <!-- memalign (FAIL) -->
    <g transform="translate(584.311068 15.6) scale(0.12 -0.12)">
     <defs>
      <path id="DejaVuSansMono-46" d="M 728 4666 
L 3475 4666 
L 3475 4134 
L 1363 4134 
L 1363 2759 
L 3278 2759 
L 3278 2228 
L 1363 2228 
L 1363 0 
L 728 0 
L 728 4666 
z
" transform="scale(0.015625)"/>
      <path id="DejaVuSansMono-49" d="M 628 4666 
L 3219 4666 
L 3219 4134 
L 2241 4134 
L 2241 531 
L 3219 531 
L 3219 0 
L 628 0 
L 628 531 
L 1606 531 
L 1606 4134 
L 628 4134 
L 628 4666 
z
" transform="scale(0.015625)"/>
     </defs>
     <use xlink:href="#DejaVuSansMono-6d"/>
     <use xlink:href="#DejaVuSansMono-65" x="60.205078"/>
     <use xlink:href="#DejaVuSansMono-6d" x="120.410156"/>
     <use xlink:href="#DejaVuSansMono-61" x="180.615234"/>
     <use xlink:href="#DejaVuSansMono-6c" x="240.820312"/>
     <use xlink:href="#DejaVuSansMono-69" x="301.025391"/>
     <use xlink:href="#DejaVuSansMono-67" x="361.230469"/>
     <use xlink:href="#DejaVuSansMono-6e" x="421.435547"/>
     <use xlink:href="#DejaVuSansMono-20" x="481.640625"/>
     <use xlink:href="#DejaVuSansMono-28" x="541.845703"/>
     <use xlink:href="#DejaVuSansMono-46" x="602.050781"/>
     <use xlink:href="#DejaVuSansMono-41" x="662.255859"/>
     <use xlink:href="#DejaVuSansMono-49" x="722.460938"/>
     <use xlink:href="#DejaVuSansMono-4c" x="782.666016"/>
     <use xlink:href="#DejaVuSansMono-29" x="842.871094"/>
    </g>
   </g>
  </g>
  <g id="axes_3">
   <g id="patch_72">
    <path d="M 43.2 390.04 
L 407.812238 390.04 
L 407.812238 233.257021 
L 43.2 233.257021 
z
" style="fill: #ffffff"/>
   </g>
   <g id="patch_73">
    <path d="M 59.773284 390.04 
L 70.822139 390.04 
L 70.822139 342.777157 
L 59.773284 342.777157 
z
" clip-path="url(#pd7d31aee7c)" style="fill: #1f77b4; fill-opacity: 0.5; stroke: #000000; stroke-width: 0.922314; stroke-linejoin: miter"/>
   </g>
   <g id="patch_74">
    <path d="M 70.822139 390.04 
L 81.870995 390.04 
L 81.870995 355.324815 
L 70.822139 355.324815 
z
" clip-path="url(#pd7d31aee7c)" style="fill: #1f77b4; fill-opacity: 0.5; stroke: #000000; stroke-width: 0.922314; stroke-linejoin: miter"/>
   </g>
   <g id="patch_75">
    <path d="M 81.870995 390.04 
L 92.919851 390.04 
L 92.919851 356.997836 
L 81.870995 356.997836 
z
" clip-path="url(#pd7d31aee7c)" style="fill: #1f77b4; fill-opacity: 0.5; stroke: #000000; stroke-width: 0.922314; stroke-linejoin: miter"/>
   </g>
   <g id="patch_76">
    <path d="M 92.919851 390.04 
L 103.968706 390.04 
L 103.968706 389.621745 
L 92.919851 389.621745 
z
" clip-path="url(#pd7d31aee7c)" style="fill: #1f77b4; fill-opacity: 0.5; stroke: #000000; stroke-width: 0.922314; stroke-linejoin: miter"/>
   </g>
   <g id="patch_77">
    <path d="M 103.968706 390.04 
L 115.017562 390.04 
L 115.017562 382.09315 
L 103.968706 382.09315 
z
" clip-path="url(#pd7d31aee7c)" style="fill: #1f77b4; fill-opacity: 0.5; stroke: #000000; stroke-width: 0.922314; stroke-linejoin: miter"/>
   </g>
   <g id="patch_78">
    <path d="M 115.017562 390.04 
L 126.066418 390.04 
L 126.066418 390.04 
L 115.017562 390.04 
z
" clip-path="url(#pd7d31aee7c)" style="fill: #1f77b4; fill-opacity: 0.5; stroke: #000000; stroke-width: 0.922314; stroke-linejoin: miter"/>
   </g>
   <g id="patch_79">
    <path d="M 126.066418 390.04 
L 137.115273 390.04 
L 137.115273 390.04 
L 126.066418 390.04 
z
" clip-path="url(#pd7d31aee7c)" style="fill: #1f77b4; fill-opacity: 0.5; stroke: #000000; stroke-width: 0.922314; stroke-linejoin: miter"/>
   </g>
   <g id="patch_80">
    <path d="M 137.115273 390.04 
L 148.164129 390.04 
L 148.164129 390.04 
L 137.115273 390.04 
z
" clip-path="url(#pd7d31aee7c)" style="fill: #1f77b4; fill-opacity: 0.5; stroke: #000000; stroke-width: 0.922314; stroke-linejoin: miter"/>
   </g>
   <g id="patch_81">
    <path d="M 148.164129 390.04 
L 159.212985 390.04 
L 159.212985 390.04 
L 148.164129 390.04 
z
" clip-path="url(#pd7d31aee7c)" style="fill: #1f77b4; fill-opacity: 0.5; stroke: #000000; stroke-width: 0.922314; stroke-linejoin: miter"/>
   </g>
   <g id="patch_82">
    <path d="M 159.212985 390.04 
L 170.261841 390.04 
L 170.261841 390.04 
L 159.212985 390.04 
z
" clip-path="url(#pd7d31aee7c)" style="fill: #1f77b4; fill-opacity: 0.5; stroke: #000000; stroke-width: 0.922314; stroke-linejoin: miter"/>
   </g>
   <g id="patch_83">
    <path d="M 170.261841 390.04 
L 181.310696 390.04 
L 181.310696 368.290727 
L 170.261841 368.290727 
z
" clip-path="url(#pd7d31aee7c)" style="fill: #1f77b4; fill-opacity: 0.5; stroke: #000000; stroke-width: 0.922314; stroke-linejoin: miter"/>
   </g>
   <g id="patch_84">
    <path d="M 181.310696 390.04 
L 192.359552 390.04 
L 192.359552 390.04 
L 181.310696 390.04 
z
" clip-path="url(#pd7d31aee7c)" style="fill: #1f77b4; fill-opacity: 0.5; stroke: #000000; stroke-width: 0.922314; stroke-linejoin: miter"/>
   </g>
   <g id="patch_85">
    <path d="M 192.359552 390.04 
L 203.408408 390.04 
L 203.408408 387.530469 
L 192.359552 387.530469 
z
" clip-path="url(#pd7d31aee7c)" style="fill: #1f77b4; fill-opacity: 0.5; stroke: #000000; stroke-width: 0.922314; stroke-linejoin: miter"/>
   </g>
   <g id="patch_86">
    <path d="M 203.408408 390.04 
L 214.457263 390.04 
L 214.457263 384.184427 
L 203.408408 384.184427 
z
" clip-path="url(#pd7d31aee7c)" style="fill: #1f77b4; fill-opacity: 0.5; stroke: #000000; stroke-width: 0.922314; stroke-linejoin: miter"/>
   </g>
   <g id="patch_87">
    <path d="M 214.457263 390.04 
L 225.506119 390.04 
L 225.506119 389.20349 
L 214.457263 389.20349 
z
" clip-path="url(#pd7d31aee7c)" style="fill: #1f77b4; fill-opacity: 0.5; stroke: #000000; stroke-width: 0.922314; stroke-linejoin: miter"/>
   </g>
   <g id="patch_88">
    <path d="M 225.506119 390.04 
L 236.554975 390.04 
L 236.554975 386.693958 
L 225.506119 386.693958 
z
" clip-path="url(#pd7d31aee7c)" style="fill: #1f77b4; fill-opacity: 0.5; stroke: #000000; stroke-width: 0.922314; stroke-linejoin: miter"/>
   </g>
   <g id="patch_89">
    <path d="M 236.554975 390.04 
L 247.60383 390.04 
L 247.60383 390.04 
L 236.554975 390.04 
z
" clip-path="url(#pd7d31aee7c)" style="fill: #1f77b4; fill-opacity: 0.5; stroke: #000000; stroke-width: 0.922314; stroke-linejoin: miter"/>
   </g>
   <g id="patch_90">
    <path d="M 247.60383 390.04 
L 258.652686 390.04 
L 258.652686 390.04 
L 247.60383 390.04 
z
" clip-path="url(#pd7d31aee7c)" style="fill: #1f77b4; fill-opacity: 0.5; stroke: #000000; stroke-width: 0.922314; stroke-linejoin: miter"/>
   </g>
   <g id="patch_91">
    <path d="M 258.652686 390.04 
L 269.701542 390.04 
L 269.701542 390.04 
L 258.652686 390.04 
z
" clip-path="url(#pd7d31aee7c)" style="fill: #1f77b4; fill-opacity: 0.5; stroke: #000000; stroke-width: 0.922314; stroke-linejoin: miter"/>
   </g>
   <g id="patch_92">
    <path d="M 269.701542 390.04 
L 280.750398 390.04 
L 280.750398 240.722877 
L 269.701542 240.722877 
z
" clip-path="url(#pd7d31aee7c)" style="fill: #1f77b4; fill-opacity: 0.5; stroke: #000000; stroke-width: 0.922314; stroke-linejoin: miter"/>
   </g>
   <g id="patch_93">
    <path d="M 280.750398 390.04 
L 291.799253 390.04 
L 291.799253 285.057933 
L 280.750398 285.057933 
z
" clip-path="url(#pd7d31aee7c)" style="fill: #1f77b4; fill-opacity: 0.5; stroke: #000000; stroke-width: 0.922314; stroke-linejoin: miter"/>
   </g>
   <g id="patch_94">
    <path d="M 291.799253 390.04 
L 302.848109 390.04 
L 302.848109 390.04 
L 291.799253 390.04 
z
" clip-path="url(#pd7d31aee7c)" style="fill: #1f77b4; fill-opacity: 0.5; stroke: #000000; stroke-width: 0.922314; stroke-linejoin: miter"/>
   </g>
   <g id="patch_95">
    <path d="M 302.848109 390.04 
L 313.896965 390.04 
L 313.896965 390.04 
L 302.848109 390.04 
z
" clip-path="url(#pd7d31aee7c)" style="fill: #1f77b4; fill-opacity: 0.5; stroke: #000000; stroke-width: 0.922314; stroke-linejoin: miter"/>
   </g>
   <g id="patch_96">
    <path d="M 313.896965 390.04 
L 324.94582 390.04 
L 324.94582 390.04 
L 313.896965 390.04 
z
" clip-path="url(#pd7d31aee7c)" style="fill: #1f77b4; fill-opacity: 0.5; stroke: #000000; stroke-width: 0.922314; stroke-linejoin: miter"/>
   </g>
   <g id="patch_97">
    <path d="M 324.94582 390.04 
L 335.994676 390.04 
L 335.994676 390.04 
L 324.94582 390.04 
z
" clip-path="url(#pd7d31aee7c)" style="fill: #1f77b4; fill-opacity: 0.5; stroke: #000000; stroke-width: 0.922314; stroke-linejoin: miter"/>
   </g>
   <g id="patch_98">
    <path d="M 335.994676 390.04 
L 347.043532 390.04 
L 347.043532 389.621745 
L 335.994676 389.621745 
z
" clip-path="url(#pd7d31aee7c)" style="fill: #1f77b4; fill-opacity: 0.5; stroke: #000000; stroke-width: 0.922314; stroke-linejoin: miter"/>
   </g>
   <g id="patch_99">
    <path d="M 347.043532 390.04 
L 358.092387 390.04 
L 358.092387 388.785234 
L 347.043532 388.785234 
z
" clip-path="url(#pd7d31aee7c)" style="fill: #1f77b4; fill-opacity: 0.5; stroke: #000000; stroke-width: 0.922314; stroke-linejoin: miter"/>
   </g>
   <g id="patch_100">
    <path d="M 358.092387 390.04 
L 369.141243 390.04 
L 369.141243 390.04 
L 358.092387 390.04 
z
" clip-path="url(#pd7d31aee7c)" style="fill: #1f77b4; fill-opacity: 0.5; stroke: #000000; stroke-width: 0.922314; stroke-linejoin: miter"/>
   </g>
   <g id="patch_101">
    <path d="M 369.141243 390.04 
L 380.190099 390.04 
L 380.190099 373.30979 
L 369.141243 373.30979 
z
" clip-path="url(#pd7d31aee7c)" style="fill: #1f77b4; fill-opacity: 0.5; stroke: #000000; stroke-width: 0.922314; stroke-linejoin: miter"/>
   </g>
   <g id="patch_102">
    <path d="M 380.190099 390.04 
L 391.238955 390.04 
L 391.238955 285.476189 
L 380.190099 285.476189 
z
" clip-path="url(#pd7d31aee7c)" style="fill: #1f77b4; fill-opacity: 0.5; stroke: #000000; stroke-width: 0.922314; stroke-linejoin: miter"/>
   </g>
   <g id="matplotlib.axis_5">
    <g id="xtick_15">
     <g id="line2d_30">
      <g>
       <use xlink:href="#m9d766efb75" x="70.615619" y="390.04" style="stroke: #000000; stroke-width: 0.8"/>
      </g>
     </g>
     <g id="text_34">
      <!-- 200 -->
      <g transform="translate(61.58515 404.691562) scale(0.1 -0.1)">
       <use xlink:href="#DejaVuSansMono-32"/>
       <use xlink:href="#DejaVuSansMono-30" x="60.205078"/>
       <use xlink:href="#DejaVuSansMono-30" x="120.410156"/>
      </g>
     </g>
    </g>
    <g id="xtick_16">
     <g id="line2d_31">
      <g>
       <use xlink:href="#m9d766efb75" x="148.060869" y="390.04" style="stroke: #000000; stroke-width: 0.8"/>
      </g>
     </g>
     <g id="text_35">
      <!-- 250 -->
      <g transform="translate(139.0304 404.691562) scale(0.1 -0.1)">
       <use xlink:href="#DejaVuSansMono-32"/>
       <use xlink:href="#DejaVuSansMono-35" x="60.205078"/>
       <use xlink:href="#DejaVuSansMono-30" x="120.410156"/>
      </g>
     </g>
    </g>
    <g id="xtick_17">
     <g id="line2d_32">
      <g>
       <use xlink:href="#m9d766efb75" x="225.506119" y="390.04" style="stroke: #000000; stroke-width: 0.8"/>
      </g>
     </g>
     <g id="text_36">
      <!-- 300 -->
      <g transform="translate(216.47565 404.691562) scale(0.1 -0.1)">
       <use xlink:href="#DejaVuSansMono-33"/>
       <use xlink:href="#DejaVuSansMono-30" x="60.205078"/>
       <use xlink:href="#DejaVuSansMono-30" x="120.410156"/>
      </g>
     </g>
    </g>
    <g id="xtick_18">
     <g id="line2d_33">
      <g>
       <use xlink:href="#m9d766efb75" x="302.951369" y="390.04" style="stroke: #000000; stroke-width: 0.8"/>
      </g>
     </g>
     <g id="text_37">
      <!-- 350 -->
      <g transform="translate(293.920901 404.691562) scale(0.1 -0.1)">
       <use xlink:href="#DejaVuSansMono-33"/>
       <use xlink:href="#DejaVuSansMono-35" x="60.205078"/>
       <use xlink:href="#DejaVuSansMono-30" x="120.410156"/>
      </g>
     </g>
    </g>
    <g id="xtick_19">
     <g id="line2d_34">
      <g>
       <use xlink:href="#m9d766efb75" x="380.39662" y="390.04" style="stroke: #000000; stroke-width: 0.8"/>
      </g>
     </g>
     <g id="text_38">
      <!-- 400 -->
      <g transform="translate(371.366151 404.691562) scale(0.1 -0.1)">
       <use xlink:href="#DejaVuSansMono-34"/>
       <use xlink:href="#DejaVuSansMono-30" x="60.205078"/>
       <use xlink:href="#DejaVuSansMono-30" x="120.410156"/>
      </g>
     </g>
    </g>
    <g id="text_39">
     <!-- Clock cycles -->
     <g transform="translate(189.384244 418.422812) scale(0.1 -0.1)">
      <use xlink:href="#DejaVuSansMono-43"/>
      <use xlink:href="#DejaVuSansMono-6c" x="60.205078"/>
      <use xlink:href="#DejaVuSansMono-6f" x="120.410156"/>
      <use xlink:href="#DejaVuSansMono-63" x="180.615234"/>
      <use xlink:href="#DejaVuSansMono-6b" x="240.820312"/>
      <use xlink:href="#DejaVuSansMono-20" x="301.025391"/>
      <use xlink:href="#DejaVuSansMono-63" x="361.230469"/>
      <use xlink:href="#DejaVuSansMono-79" x="421.435547"/>
      <use xlink:href="#DejaVuSansMono-63" x="481.640625"/>
      <use xlink:href="#DejaVuSansMono-6c" x="541.845703"/>
      <use xlink:href="#DejaVuSansMono-65" x="602.050781"/>
      <use xlink:href="#DejaVuSansMono-73" x="662.255859"/>
     </g>
    </g>
   </g>
   <g id="matplotlib.axis_6">
    <g id="ytick_14">
     <g id="line2d_35">
      <g>
       <use xlink:href="#mdc522ac158" x="43.2" y="390.04" style="stroke: #000000; stroke-width: 0.8"/>
      </g>
     </g>
     <g id="text_40">
      <!-- 0 -->
      <g transform="translate(30.179688 393.865781) scale(0.1 -0.1)">
       <use xlink:href="#DejaVuSansMono-30"/>
      </g>
     </g>
    </g>
    <g id="ytick_15">
     <g id="line2d_36">
      <g>
       <use xlink:href="#mdc522ac158" x="43.2" y="348.214475" style="stroke: #000000; stroke-width: 0.8"/>
      </g>
     </g>
     <g id="text_41">
      <!-- 100 -->
      <g transform="translate(18.139063 352.040257) scale(0.1 -0.1)">
       <use xlink:href="#DejaVuSansMono-31"/>
       <use xlink:href="#DejaVuSansMono-30" x="60.205078"/>
       <use xlink:href="#DejaVuSansMono-30" x="120.410156"/>
      </g>
     </g>
    </g>
    <g id="ytick_16">
     <g id="line2d_37">
      <g>
       <use xlink:href="#mdc522ac158" x="43.2" y="306.388951" style="stroke: #000000; stroke-width: 0.8"/>
      </g>
     </g>
     <g id="text_42">
      <!-- 200 -->
      <g transform="translate(18.139063 310.214732) scale(0.1 -0.1)">
       <use xlink:href="#DejaVuSansMono-32"/>
       <use xlink:href="#DejaVuSansMono-30" x="60.205078"/>
       <use xlink:href="#DejaVuSansMono-30" x="120.410156"/>
      </g>
     </g>
    </g>
    <g id="ytick_17">
     <g id="line2d_38">
      <g>
       <use xlink:href="#mdc522ac158" x="43.2" y="264.563426" style="stroke: #000000; stroke-width: 0.8"/>
      </g>
     </g>
     <g id="text_43">
      <!-- 300 -->
      <g transform="translate(18.139063 268.389208) scale(0.1 -0.1)">
       <use xlink:href="#DejaVuSansMono-33"/>
       <use xlink:href="#DejaVuSansMono-30" x="60.205078"/>
       <use xlink:href="#DejaVuSansMono-30" x="120.410156"/>
      </g>
     </g>
    </g>
    <g id="text_44">
     <!-- Count -->
     <g transform="translate(12.059375 326.699292) rotate(-90) scale(0.1 -0.1)">
      <use xlink:href="#DejaVuSansMono-43"/>
      <use xlink:href="#DejaVuSansMono-6f" x="60.205078"/>
      <use xlink:href="#DejaVuSansMono-75" x="120.410156"/>
      <use xlink:href="#DejaVuSansMono-6e" x="180.615234"/>
      <use xlink:href="#DejaVuSansMono-74" x="240.820312"/>
     </g>
    </g>
   </g>
   <g id="line2d_39">
    <path d="M 59.773284 374.760771 
L 64.770253 373.514555 
L 68.101567 372.885623 
L 71.43288 372.441952 
L 74.764193 372.197597 
L 78.095507 372.160198 
L 81.42682 372.330562 
L 84.758133 372.702567 
L 88.089446 373.263409 
L 91.42076 373.994171 
L 96.41773 375.354917 
L 103.080356 377.507739 
L 116.405609 382.022392 
L 121.402579 383.495908 
L 126.399549 384.742555 
L 131.396519 385.725104 
L 136.393489 386.428659 
L 141.390459 386.858524 
L 146.387429 387.03736 
L 151.384399 387.002024 
L 158.047025 386.705135 
L 169.706622 385.866769 
L 179.700561 385.239494 
L 188.028845 384.955765 
L 206.351068 384.542711 
L 211.348038 384.110519 
L 214.679351 383.63457 
L 218.010664 382.962999 
L 221.341977 382.0579 
L 224.673291 380.885017 
L 228.004604 379.416748 
L 231.335917 377.635475 
L 234.667231 375.536948 
L 237.998544 373.133416 
L 241.329857 370.456116 
L 246.326827 366.045468 
L 256.320767 356.859695 
L 259.65208 354.087295 
L 262.983393 351.655853 
L 266.314707 349.675303 
L 267.980363 348.884264 
L 269.64602 348.239478 
L 271.311677 347.749017 
L 272.977333 347.419152 
L 274.64299 347.254238 
L 276.308647 347.256621 
L 277.974303 347.426596 
L 279.63996 347.762398 
L 281.305616 348.260235 
L 282.971273 348.914363 
L 284.63693 349.717194 
L 286.302586 350.659444 
L 289.6339 352.917627 
L 292.965213 355.587845 
L 296.296526 358.555089 
L 311.287436 372.427366 
L 314.618749 375.023533 
L 317.950062 377.286486 
L 321.281376 379.177281 
L 324.612689 380.673355 
L 327.944002 381.766452 
L 331.275316 382.460371 
L 334.606629 382.768869 
L 337.937942 382.713978 
L 341.269255 382.324861 
L 344.600569 381.63717 
L 347.931882 380.692783 
L 351.263195 379.5397 
L 356.260165 377.538164 
L 367.919762 372.688149 
L 371.251075 371.547427 
L 374.582388 370.624881 
L 377.913701 369.967147 
L 381.245015 369.608377 
L 384.576328 369.568093 
L 387.907641 369.85001 
L 391.238955 370.442005 
L 391.238955 370.442005 
" clip-path="url(#pd7d31aee7c)" style="fill: none; stroke: #1f77b4; stroke-width: 1.5; stroke-linecap: square"/>
   </g>
   <g id="patch_103">
    <path d="M 43.2 390.04 
L 43.2 233.257021 
" style="fill: none; stroke: #000000; stroke-width: 0.8; stroke-linejoin: miter; stroke-linecap: square"/>
   </g>
   <g id="patch_104">
    <path d="M 407.812238 390.04 
L 407.812238 233.257021 
" style="fill: none; stroke: #000000; stroke-width: 0.8; stroke-linejoin: miter; stroke-linecap: square"/>
   </g>
   <g id="patch_105">
    <path d="M 43.2 390.04 
L 407.812238 390.04 
" style="fill: none; stroke: #000000; stroke-width: 0.8; stroke-linejoin: miter; stroke-linecap: square"/>
   </g>
   <g id="patch_106">
    <path d="M 43.2 233.257021 
L 407.812238 233.257021 
" style="fill: none; stroke: #000000; stroke-width: 0.8; stroke-linejoin: miter; stroke-linecap: square"/>
   </g>
   <g id="text_45">
    <!-- memalign (OK) -->
    <g transform="translate(178.547682 227.257021) scale(0.12 -0.12)">
     <defs>
      <path id="DejaVuSansMono-4f" d="M 2828 2328 
Q 2828 3356 2617 3797 
Q 2406 4238 1925 4238 
Q 1447 4238 1236 3797 
Q 1025 3356 1025 2328 
Q 1025 1303 1236 862 
Q 1447 422 1925 422 
Q 2406 422 2617 861 
Q 2828 1300 2828 2328 
z
M 3488 2328 
Q 3488 1109 3102 509 
Q 2716 -91 1925 -91 
Q 1134 -91 750 506 
Q 366 1103 366 2328 
Q 366 3550 752 4150 
Q 1138 4750 1925 4750 
Q 2716 4750 3102 4150 
Q 3488 3550 3488 2328 
z
" transform="scale(0.015625)"/>
      <path id="DejaVuSansMono-4b" d="M 428 4666 
L 1063 4666 
L 1063 2591 
L 3034 4666 
L 3775 4666 
L 1959 2759 
L 3828 0 
L 3066 0 
L 1544 2338 
L 1063 1825 
L 1063 0 
L 428 0 
L 428 4666 
z
" transform="scale(0.015625)"/>
     </defs>
     <use xlink:href="#DejaVuSansMono-6d"/>
     <use xlink:href="#DejaVuSansMono-65" x="60.205078"/>
     <use xlink:href="#DejaVuSansMono-6d" x="120.410156"/>
     <use xlink:href="#DejaVuSansMono-61" x="180.615234"/>
     <use xlink:href="#DejaVuSansMono-6c" x="240.820312"/>
     <use xlink:href="#DejaVuSansMono-69" x="301.025391"/>
     <use xlink:href="#DejaVuSansMono-67" x="361.230469"/>
     <use xlink:href="#DejaVuSansMono-6e" x="421.435547"/>
     <use xlink:href="#DejaVuSansMono-20" x="481.640625"/>
     <use xlink:href="#DejaVuSansMono-28" x="541.845703"/>
     <use xlink:href="#DejaVuSansMono-4f" x="602.050781"/>
     <use xlink:href="#DejaVuSansMono-4b" x="662.255859"/>
     <use xlink:href="#DejaVuSansMono-29" x="722.460938"/>
    </g>
   </g>
  </g>
  <g id="axes_4">
   <g id="patch_107">
    <path d="M 456.187762 390.04 
L 820.8 390.04 
L 820.8 233.257021 
L 456.187762 233.257021 
z
" style="fill: #ffffff"/>
   </g>
   <g id="patch_108">
    <path d="M 472.761045 390.04 
L 483.809901 390.04 
L 483.809901 389.797602 
L 472.761045 389.797602 
z
" clip-path="url(#pded7af1163)" style="fill: #1f77b4; fill-opacity: 0.5; stroke: #000000; stroke-width: 0.922314; stroke-linejoin: miter"/>
   </g>
   <g id="patch_109">
    <path d="M 483.809901 390.04 
L 494.858757 390.04 
L 494.858757 390.04 
L 483.809901 390.04 
z
" clip-path="url(#pded7af1163)" style="fill: #1f77b4; fill-opacity: 0.5; stroke: #000000; stroke-width: 0.922314; stroke-linejoin: miter"/>
   </g>
   <g id="patch_110">
    <path d="M 494.858757 390.04 
L 505.907613 390.04 
L 505.907613 365.315412 
L 494.858757 365.315412 
z
" clip-path="url(#pded7af1163)" style="fill: #1f77b4; fill-opacity: 0.5; stroke: #000000; stroke-width: 0.922314; stroke-linejoin: miter"/>
   </g>
   <g id="patch_111">
    <path d="M 505.907613 390.04 
L 516.956468 390.04 
L 516.956468 343.499598 
L 505.907613 343.499598 
z
" clip-path="url(#pded7af1163)" style="fill: #1f77b4; fill-opacity: 0.5; stroke: #000000; stroke-width: 0.922314; stroke-linejoin: miter"/>
   </g>
   <g id="patch_112">
    <path d="M 516.956468 390.04 
L 528.005324 390.04 
L 528.005324 390.04 
L 516.956468 390.04 
z
" clip-path="url(#pded7af1163)" style="fill: #1f77b4; fill-opacity: 0.5; stroke: #000000; stroke-width: 0.922314; stroke-linejoin: miter"/>
   </g>
   <g id="patch_113">
    <path d="M 528.005324 390.04 
L 539.05418 390.04 
L 539.05418 390.04 
L 528.005324 390.04 
z
" clip-path="url(#pded7af1163)" style="fill: #1f77b4; fill-opacity: 0.5; stroke: #000000; stroke-width: 0.922314; stroke-linejoin: miter"/>
   </g>
   <g id="patch_114">
    <path d="M 539.05418 390.04 
L 550.103035 390.04 
L 550.103035 390.04 
L 539.05418 390.04 
z
" clip-path="url(#pded7af1163)" style="fill: #1f77b4; fill-opacity: 0.5; stroke: #000000; stroke-width: 0.922314; stroke-linejoin: miter"/>
   </g>
   <g id="patch_115">
    <path d="M 550.103035 390.04 
L 561.151891 390.04 
L 561.151891 390.04 
L 550.103035 390.04 
z
" clip-path="url(#pded7af1163)" style="fill: #1f77b4; fill-opacity: 0.5; stroke: #000000; stroke-width: 0.922314; stroke-linejoin: miter"/>
   </g>
   <g id="patch_116">
    <path d="M 561.151891 390.04 
L 572.200747 390.04 
L 572.200747 390.04 
L 561.151891 390.04 
z
" clip-path="url(#pded7af1163)" style="fill: #1f77b4; fill-opacity: 0.5; stroke: #000000; stroke-width: 0.922314; stroke-linejoin: miter"/>
   </g>
   <g id="patch_117">
    <path d="M 572.200747 390.04 
L 583.249602 390.04 
L 583.249602 390.04 
L 572.200747 390.04 
z
" clip-path="url(#pded7af1163)" style="fill: #1f77b4; fill-opacity: 0.5; stroke: #000000; stroke-width: 0.922314; stroke-linejoin: miter"/>
   </g>
   <g id="patch_118">
    <path d="M 583.249602 390.04 
L 594.298458 390.04 
L 594.298458 390.04 
L 583.249602 390.04 
z
" clip-path="url(#pded7af1163)" style="fill: #1f77b4; fill-opacity: 0.5; stroke: #000000; stroke-width: 0.922314; stroke-linejoin: miter"/>
   </g>
   <g id="patch_119">
    <path d="M 594.298458 390.04 
L 605.347314 390.04 
L 605.347314 390.04 
L 594.298458 390.04 
z
" clip-path="url(#pded7af1163)" style="fill: #1f77b4; fill-opacity: 0.5; stroke: #000000; stroke-width: 0.922314; stroke-linejoin: miter"/>
   </g>
   <g id="patch_120">
    <path d="M 605.347314 390.04 
L 616.39617 390.04 
L 616.39617 390.04 
L 605.347314 390.04 
z
" clip-path="url(#pded7af1163)" style="fill: #1f77b4; fill-opacity: 0.5; stroke: #000000; stroke-width: 0.922314; stroke-linejoin: miter"/>
   </g>
   <g id="patch_121">
    <path d="M 616.39617 390.04 
L 627.445025 390.04 
L 627.445025 390.04 
L 616.39617 390.04 
z
" clip-path="url(#pded7af1163)" style="fill: #1f77b4; fill-opacity: 0.5; stroke: #000000; stroke-width: 0.922314; stroke-linejoin: miter"/>
   </g>
   <g id="patch_122">
    <path d="M 627.445025 390.04 
L 638.493881 390.04 
L 638.493881 388.585612 
L 627.445025 388.585612 
z
" clip-path="url(#pded7af1163)" style="fill: #1f77b4; fill-opacity: 0.5; stroke: #000000; stroke-width: 0.922314; stroke-linejoin: miter"/>
   </g>
   <g id="patch_123">
    <path d="M 638.493881 390.04 
L 649.542737 390.04 
L 649.542737 387.131225 
L 638.493881 387.131225 
z
" clip-path="url(#pded7af1163)" style="fill: #1f77b4; fill-opacity: 0.5; stroke: #000000; stroke-width: 0.922314; stroke-linejoin: miter"/>
   </g>
   <g id="patch_124">
    <path d="M 649.542737 390.04 
L 660.591592 390.04 
L 660.591592 240.722877 
L 649.542737 240.722877 
z
" clip-path="url(#pded7af1163)" style="fill: #1f77b4; fill-opacity: 0.5; stroke: #000000; stroke-width: 0.922314; stroke-linejoin: miter"/>
   </g>
   <g id="patch_125">
    <path d="M 660.591592 390.04 
L 671.640448 390.04 
L 671.640448 376.465716 
L 660.591592 376.465716 
z
" clip-path="url(#pded7af1163)" style="fill: #1f77b4; fill-opacity: 0.5; stroke: #000000; stroke-width: 0.922314; stroke-linejoin: miter"/>
   </g>
   <g id="patch_126">
    <path d="M 671.640448 390.04 
L 682.689304 390.04 
L 682.689304 390.04 
L 671.640448 390.04 
z
" clip-path="url(#pded7af1163)" style="fill: #1f77b4; fill-opacity: 0.5; stroke: #000000; stroke-width: 0.922314; stroke-linejoin: miter"/>
   </g>
   <g id="patch_127">
    <path d="M 682.689304 390.04 
L 693.738159 390.04 
L 693.738159 390.04 
L 682.689304 390.04 
z
" clip-path="url(#pded7af1163)" style="fill: #1f77b4; fill-opacity: 0.5; stroke: #000000; stroke-width: 0.922314; stroke-linejoin: miter"/>
   </g>
   <g id="patch_128">
    <path d="M 693.738159 390.04 
L 704.787015 390.04 
L 704.787015 390.04 
L 693.738159 390.04 
z
" clip-path="url(#pded7af1163)" style="fill: #1f77b4; fill-opacity: 0.5; stroke: #000000; stroke-width: 0.922314; stroke-linejoin: miter"/>
   </g>
   <g id="patch_129">
    <path d="M 704.787015 390.04 
L 715.835871 390.04 
L 715.835871 390.04 
L 704.787015 390.04 
z
" clip-path="url(#pded7af1163)" style="fill: #1f77b4; fill-opacity: 0.5; stroke: #000000; stroke-width: 0.922314; stroke-linejoin: miter"/>
   </g>
   <g id="patch_130">
    <path d="M 715.835871 390.04 
L 726.884727 390.04 
L 726.884727 390.04 
L 715.835871 390.04 
z
" clip-path="url(#pded7af1163)" style="fill: #1f77b4; fill-opacity: 0.5; stroke: #000000; stroke-width: 0.922314; stroke-linejoin: miter"/>
   </g>
   <g id="patch_131">
    <path d="M 726.884727 390.04 
L 737.933582 390.04 
L 737.933582 390.04 
L 726.884727 390.04 
z
" clip-path="url(#pded7af1163)" style="fill: #1f77b4; fill-opacity: 0.5; stroke: #000000; stroke-width: 0.922314; stroke-linejoin: miter"/>
   </g>
   <g id="patch_132">
    <path d="M 737.933582 390.04 
L 748.982438 390.04 
L 748.982438 390.04 
L 737.933582 390.04 
z
" clip-path="url(#pded7af1163)" style="fill: #1f77b4; fill-opacity: 0.5; stroke: #000000; stroke-width: 0.922314; stroke-linejoin: miter"/>
   </g>
   <g id="patch_133">
    <path d="M 748.982438 390.04 
L 760.031294 390.04 
L 760.031294 389.555204 
L 748.982438 389.555204 
z
" clip-path="url(#pded7af1163)" style="fill: #1f77b4; fill-opacity: 0.5; stroke: #000000; stroke-width: 0.922314; stroke-linejoin: miter"/>
   </g>
   <g id="patch_134">
    <path d="M 760.031294 390.04 
L 771.080149 390.04 
L 771.080149 389.312806 
L 760.031294 389.312806 
z
" clip-path="url(#pded7af1163)" style="fill: #1f77b4; fill-opacity: 0.5; stroke: #000000; stroke-width: 0.922314; stroke-linejoin: miter"/>
   </g>
   <g id="patch_135">
    <path d="M 771.080149 390.04 
L 782.129005 390.04 
L 782.129005 333.561283 
L 771.080149 333.561283 
z
" clip-path="url(#pded7af1163)" style="fill: #1f77b4; fill-opacity: 0.5; stroke: #000000; stroke-width: 0.922314; stroke-linejoin: miter"/>
   </g>
   <g id="patch_136">
    <path d="M 782.129005 390.04 
L 793.177861 390.04 
L 793.177861 390.04 
L 782.129005 390.04 
z
" clip-path="url(#pded7af1163)" style="fill: #1f77b4; fill-opacity: 0.5; stroke: #000000; stroke-width: 0.922314; stroke-linejoin: miter"/>
   </g>
   <g id="patch_137">
    <path d="M 793.177861 390.04 
L 804.226716 390.04 
L 804.226716 376.465716 
L 793.177861 376.465716 
z
" clip-path="url(#pded7af1163)" style="fill: #1f77b4; fill-opacity: 0.5; stroke: #000000; stroke-width: 0.922314; stroke-linejoin: miter"/>
   </g>
   <g id="matplotlib.axis_7">
    <g id="xtick_20">
     <g id="line2d_40">
      <g>
       <use xlink:href="#m9d766efb75" x="478.26255" y="390.04" style="stroke: #000000; stroke-width: 0.8"/>
      </g>
     </g>
     <g id="text_46">
      <!-- 100 -->
      <g transform="translate(469.232082 404.691562) scale(0.1 -0.1)">
       <use xlink:href="#DejaVuSansMono-31"/>
       <use xlink:href="#DejaVuSansMono-30" x="60.205078"/>
       <use xlink:href="#DejaVuSansMono-30" x="120.410156"/>
      </g>
     </g>
    </g>
    <g id="xtick_21">
     <g id="line2d_41">
      <g>
       <use xlink:href="#m9d766efb75" x="547.031362" y="390.04" style="stroke: #000000; stroke-width: 0.8"/>
      </g>
     </g>
     <g id="text_47">
      <!-- 150 -->
      <g transform="translate(538.000893 404.691562) scale(0.1 -0.1)">
       <use xlink:href="#DejaVuSansMono-31"/>
       <use xlink:href="#DejaVuSansMono-35" x="60.205078"/>
       <use xlink:href="#DejaVuSansMono-30" x="120.410156"/>
      </g>
     </g>
    </g>
    <g id="xtick_22">
     <g id="line2d_42">
      <g>
       <use xlink:href="#m9d766efb75" x="615.800173" y="390.04" style="stroke: #000000; stroke-width: 0.8"/>
      </g>
     </g>
     <g id="text_48">
      <!-- 200 -->
      <g transform="translate(606.769704 404.691562) scale(0.1 -0.1)">
       <use xlink:href="#DejaVuSansMono-32"/>
       <use xlink:href="#DejaVuSansMono-30" x="60.205078"/>
       <use xlink:href="#DejaVuSansMono-30" x="120.410156"/>
      </g>
     </g>
    </g>
    <g id="xtick_23">
     <g id="line2d_43">
      <g>
       <use xlink:href="#m9d766efb75" x="684.568985" y="390.04" style="stroke: #000000; stroke-width: 0.8"/>
      </g>
     </g>
     <g id="text_49">
      <!-- 250 -->
      <g transform="translate(675.538516 404.691562) scale(0.1 -0.1)">
       <use xlink:href="#DejaVuSansMono-32"/>
       <use xlink:href="#DejaVuSansMono-35" x="60.205078"/>
       <use xlink:href="#DejaVuSansMono-30" x="120.410156"/>
      </g>
     </g>
    </g>
    <g id="xtick_24">
     <g id="line2d_44">
      <g>
       <use xlink:href="#m9d766efb75" x="753.337796" y="390.04" style="stroke: #000000; stroke-width: 0.8"/>
      </g>
     </g>
     <g id="text_50">
      <!-- 300 -->
      <g transform="translate(744.307327 404.691562) scale(0.1 -0.1)">
       <use xlink:href="#DejaVuSansMono-33"/>
       <use xlink:href="#DejaVuSansMono-30" x="60.205078"/>
       <use xlink:href="#DejaVuSansMono-30" x="120.410156"/>
      </g>
     </g>
    </g>
    <g id="text_51">
     <!-- Clock cycles -->
     <g transform="translate(602.372006 418.422812) scale(0.1 -0.1)">
      <use xlink:href="#DejaVuSansMono-43"/>
      <use xlink:href="#DejaVuSansMono-6c" x="60.205078"/>
      <use xlink:href="#DejaVuSansMono-6f" x="120.410156"/>
      <use xlink:href="#DejaVuSansMono-63" x="180.615234"/>
      <use xlink:href="#DejaVuSansMono-6b" x="240.820312"/>
      <use xlink:href="#DejaVuSansMono-20" x="301.025391"/>
      <use xlink:href="#DejaVuSansMono-63" x="361.230469"/>
      <use xlink:href="#DejaVuSansMono-79" x="421.435547"/>
      <use xlink:href="#DejaVuSansMono-63" x="481.640625"/>
      <use xlink:href="#DejaVuSansMono-6c" x="541.845703"/>
      <use xlink:href="#DejaVuSansMono-65" x="602.050781"/>
      <use xlink:href="#DejaVuSansMono-73" x="662.255859"/>
     </g>
    </g>
   </g>
   <g id="matplotlib.axis_8">
    <g id="ytick_18">
     <g id="line2d_45">
      <g>
       <use xlink:href="#mdc522ac158" x="456.187762" y="390.04" style="stroke: #000000; stroke-width: 0.8"/>
      </g>
     </g>
     <g id="text_52">
      <!-- 0 -->
      <g transform="translate(443.167449 393.865781) scale(0.1 -0.1)">
       <use xlink:href="#DejaVuSansMono-30"/>
      </g>
     </g>
    </g>
    <g id="ytick_19">
     <g id="line2d_46">
      <g>
       <use xlink:href="#mdc522ac158" x="456.187762" y="365.800207" style="stroke: #000000; stroke-width: 0.8"/>
      </g>
     </g>
     <g id="text_53">
      <!-- 100 -->
      <g transform="translate(431.126824 369.625989) scale(0.1 -0.1)">
       <use xlink:href="#DejaVuSansMono-31"/>
       <use xlink:href="#DejaVuSansMono-30" x="60.205078"/>
       <use xlink:href="#DejaVuSansMono-30" x="120.410156"/>
      </g>
     </g>
    </g>
    <g id="ytick_20">
     <g id="line2d_47">
      <g>
       <use xlink:href="#mdc522ac158" x="456.187762" y="341.560415" style="stroke: #000000; stroke-width: 0.8"/>
      </g>
     </g>
     <g id="text_54">
      <!-- 200 -->
      <g transform="translate(431.126824 345.386196) scale(0.1 -0.1)">
       <use xlink:href="#DejaVuSansMono-32"/>
       <use xlink:href="#DejaVuSansMono-30" x="60.205078"/>
       <use xlink:href="#DejaVuSansMono-30" x="120.410156"/>
      </g>
     </g>
    </g>
    <g id="ytick_21">
     <g id="line2d_48">
      <g>
       <use xlink:href="#mdc522ac158" x="456.187762" y="317.320622" style="stroke: #000000; stroke-width: 0.8"/>
      </g>
     </g>
     <g id="text_55">
      <!-- 300 -->
      <g transform="translate(431.126824 321.146403) scale(0.1 -0.1)">
       <use xlink:href="#DejaVuSansMono-33"/>
       <use xlink:href="#DejaVuSansMono-30" x="60.205078"/>
       <use xlink:href="#DejaVuSansMono-30" x="120.410156"/>
      </g>
     </g>
    </g>
    <g id="ytick_22">
     <g id="line2d_49">
      <g>
       <use xlink:href="#mdc522ac158" x="456.187762" y="293.080829" style="stroke: #000000; stroke-width: 0.8"/>
      </g>
     </g>
     <g id="text_56">
      <!-- 400 -->
      <g transform="translate(431.126824 296.906611) scale(0.1 -0.1)">
       <use xlink:href="#DejaVuSansMono-34"/>
       <use xlink:href="#DejaVuSansMono-30" x="60.205078"/>
       <use xlink:href="#DejaVuSansMono-30" x="120.410156"/>
      </g>
     </g>
    </g>
    <g id="ytick_23">
     <g id="line2d_50">
      <g>
       <use xlink:href="#mdc522ac158" x="456.187762" y="268.841037" style="stroke: #000000; stroke-width: 0.8"/>
      </g>
     </g>
     <g id="text_57">
      <!-- 500 -->
      <g transform="translate(431.126824 272.666818) scale(0.1 -0.1)">
       <use xlink:href="#DejaVuSansMono-35"/>
       <use xlink:href="#DejaVuSansMono-30" x="60.205078"/>
       <use xlink:href="#DejaVuSansMono-30" x="120.410156"/>
      </g>
     </g>
    </g>
    <g id="ytick_24">
     <g id="line2d_51">
      <g>
       <use xlink:href="#mdc522ac158" x="456.187762" y="244.601244" style="stroke: #000000; stroke-width: 0.8"/>
      </g>
     </g>
     <g id="text_58">
      <!-- 600 -->
      <g transform="translate(431.126824 248.427025) scale(0.1 -0.1)">
       <use xlink:href="#DejaVuSansMono-36"/>
       <use xlink:href="#DejaVuSansMono-30" x="60.205078"/>
       <use xlink:href="#DejaVuSansMono-30" x="120.410156"/>
      </g>
     </g>
    </g>
    <g id="text_59">
     <!-- Count -->
     <g transform="translate(425.047137 326.699292) rotate(-90) scale(0.1 -0.1)">
      <use xlink:href="#DejaVuSansMono-43"/>
      <use xlink:href="#DejaVuSansMono-6f" x="60.205078"/>
      <use xlink:href="#DejaVuSansMono-75" x="120.410156"/>
      <use xlink:href="#DejaVuSansMono-6e" x="180.615234"/>
      <use xlink:href="#DejaVuSansMono-74" x="240.820312"/>
     </g>
    </g>
   </g>
   <g id="line2d_52">
    <path d="M 472.761045 386.302371 
L 477.758015 384.809662 
L 482.754985 383.067433 
L 496.080238 378.229705 
L 499.411552 377.285682 
L 502.742865 376.566492 
L 506.074178 376.117641 
L 509.405491 375.968611 
L 512.736805 376.129674 
L 516.068118 376.590723 
L 519.399431 377.322336 
L 522.730745 378.278886 
L 527.727715 380.008782 
L 541.052968 384.908245 
L 546.049938 386.401395 
L 551.046907 387.587068 
L 556.043877 388.467086 
L 561.040847 389.078611 
L 566.037817 389.474893 
L 572.700444 389.758603 
L 581.028727 389.836683 
L 587.691353 389.695575 
L 592.688323 389.424301 
L 597.685293 388.934224 
L 601.016607 388.435628 
L 604.34792 387.756199 
L 607.679233 386.854969 
L 611.010546 385.691051 
L 614.34186 384.228174 
L 617.673173 382.440334 
L 621.004486 380.318095 
L 624.3358 377.874824 
L 627.667113 375.151862 
L 632.664083 370.709826 
L 639.326709 364.731073 
L 642.658023 362.044937 
L 645.989336 359.767663 
L 647.654992 358.827405 
L 649.320649 358.040379 
L 650.986306 357.41966 
L 652.651962 356.97575 
L 654.317619 356.716287 
L 655.983276 356.645823 
L 657.648932 356.765692 
L 659.314589 357.07397 
L 660.980246 357.565528 
L 662.645902 358.23217 
L 664.311559 359.062866 
L 665.977215 360.044056 
L 669.308529 362.393283 
L 672.639842 365.135918 
L 677.636812 369.644266 
L 682.633782 374.176099 
L 685.965095 377.001093 
L 689.296408 379.563936 
L 692.627722 381.809899 
L 695.959035 383.713827 
L 699.290348 385.275416 
L 702.621662 386.512888 
L 705.952975 387.45615 
L 709.284288 388.140342 
L 712.615601 388.600421 
L 715.946915 388.867149 
L 719.278228 388.964609 
L 724.275198 388.827244 
L 729.272168 388.369945 
L 734.269138 387.594438 
L 739.266108 386.498678 
L 744.263077 385.100217 
L 749.260047 383.456731 
L 762.5853 378.852368 
L 765.916614 377.934211 
L 769.247927 377.216403 
L 772.57924 376.739854 
L 775.910554 376.531429 
L 779.241867 376.601434 
L 782.57318 376.942827 
L 785.904493 377.532261 
L 789.235807 378.332724 
L 794.232777 379.825097 
L 804.226716 383.217995 
L 804.226716 383.217995 
" clip-path="url(#pded7af1163)" style="fill: none; stroke: #1f77b4; stroke-width: 1.5; stroke-linecap: square"/>
   </g>
   <g id="patch_138">
    <path d="M 456.187762 390.04 
L 456.187762 233.257021 
" style="fill: none; stroke: #000000; stroke-width: 0.8; stroke-linejoin: miter; stroke-linecap: square"/>
   </g>
   <g id="patch_139">
    <path d="M 820.8 390.04 
L 820.8 233.257021 
" style="fill: none; stroke: #000000; stroke-width: 0.8; stroke-linejoin: miter; stroke-linecap: square"/>
   </g>
   <g id="patch_140">
    <path d="M 456.187762 390.04 
L 820.8 390.04 
" style="fill: none; stroke: #000000; stroke-width: 0.8; stroke-linejoin: miter; stroke-linecap: square"/>
   </g>
   <g id="patch_141">
    <path d="M 456.187762 233.257021 
L 820.8 233.257021 
" style="fill: none; stroke: #000000; stroke-width: 0.8; stroke-linejoin: miter; stroke-linecap: square"/>
   </g>
   <g id="text_60">
    <!-- free -->
    <g transform="translate(624.045131 227.257021) scale(0.12 -0.12)">
     <defs>
      <path id="DejaVuSansMono-66" d="M 3322 4863 
L 3322 4384 
L 2669 4384 
Q 2359 4384 2239 4257 
Q 2119 4131 2119 3809 
L 2119 3500 
L 3322 3500 
L 3322 3053 
L 2119 3053 
L 2119 0 
L 1544 0 
L 1544 3053 
L 609 3053 
L 609 3500 
L 1544 3500 
L 1544 3744 
Q 1544 4319 1808 4591 
Q 2072 4863 2631 4863 
L 3322 4863 
z
" transform="scale(0.015625)"/>
      <path id="DejaVuSansMono-72" d="M 3609 2778 
Q 3425 2922 3234 2987 
Q 3044 3053 2816 3053 
Q 2278 3053 1993 2715 
Q 1709 2378 1709 1741 
L 1709 0 
L 1131 0 
L 1131 3500 
L 1709 3500 
L 1709 2816 
Q 1853 3188 2151 3386 
Q 2450 3584 2859 3584 
Q 3072 3584 3256 3531 
Q 3441 3478 3609 3366 
L 3609 2778 
z
" transform="scale(0.015625)"/>
     </defs>
     <use xlink:href="#DejaVuSansMono-66"/>
     <use xlink:href="#DejaVuSansMono-72" x="60.205078"/>
     <use xlink:href="#DejaVuSansMono-65" x="120.410156"/>
     <use xlink:href="#DejaVuSansMono-65" x="180.615234"/>
    </g>
   </g>
  </g>
 </g>
 <defs>
  <clipPath id="pf69c9269e2">
   <rect x="43.2" y="21.6" width="364.612238" height="156.782979"/>
  </clipPath>
  <clipPath id="p9e425dd875">
   <rect x="456.187762" y="21.6" width="364.612238" height="156.782979"/>
  </clipPath>
  <clipPath id="pd7d31aee7c">
   <rect x="43.2" y="233.257021" width="364.612238" height="156.782979"/>
  </clipPath>
  <clipPath id="pded7af1163">
   <rect x="456.187762" y="233.257021" width="364.612238" height="156.782979"/>
  </clipPath>
 </defs>
</svg>
